<?xml version="1.0" encoding="UTF-8" standalone="no"?>
<!DOCTYPE svg PUBLIC "-//W3C//DTD SVG 1.1//EN" "http://www.w3.org/Graphics/SVG/1.1/DTD/svg11.dtd">
<svg width="100%" height="100%" viewBox="0 0 800 800" version="1.1" xmlns="http://www.w3.org/2000/svg" xmlns:xlink="http://www.w3.org/1999/xlink" xml:space="preserve" xmlns:serif="http://www.serif.com/" style="fill-rule:evenodd;clip-rule:evenodd;stroke-linejoin:round;stroke-miterlimit:2;">
    <g transform="matrix(3.125,0,0,3.125,0,0)">
        <path d="M128,24C70.947,24 24,70.947 24,128C24,185.053 70.947,232 128,232C185.053,232 232,185.053 232,128C231.935,70.972 185.028,24.065 128,24ZM128,216C79.725,216 40,176.275 40,128C40,79.725 79.725,40 128,40C176.275,40 216,79.725 216,128C215.945,176.255 176.255,215.945 128,216Z" style="fill:white;fill-rule:nonzero;"/>
        <path d="M156.284,128.402L136,148.687L136,88C136,83.611 132.389,80 128,80C123.611,80 120,83.611 120,88L120,148.687L99.716,128.402C98.216,126.902 96.18,126.059 94.059,126.059C89.67,126.059 86.059,129.67 86.059,134.059C86.059,136.18 86.903,138.216 88.402,139.716L122.343,173.657C125.446,176.76 130.554,176.76 133.657,173.657L167.598,139.716C169.097,138.216 169.941,136.18 169.941,134.059C169.941,129.67 166.33,126.059 161.941,126.059C159.82,126.059 157.784,126.902 156.284,128.402Z" style="fill:white;fill-rule:nonzero;"/>
    </g>
</svg>
