<!DOCTYPE svg PUBLIC "-//W3C//DTD SVG 1.1//EN" "http://www.w3.org/Graphics/SVG/1.1/DTD/svg11.dtd">

<!-- Uploaded to: SVG Repo, www.svgrepo.com, Transformed by: SVG Repo Mixer Tools -->
<svg width="800px" height="800px" viewBox="-7 -2 24 24" version="1.1" xmlns="http://www.w3.org/2000/svg" xmlns:xlink="http://www.w3.org/1999/xlink" fill="#000000">

<g id="SVGRepo_bgCarrier" stroke-width="0"/>

<g id="SVGRepo_tracerCarrier" stroke-linecap="round" stroke-linejoin="round"/>

<g id="SVGRepo_iconCarrier"> <title>road_round [#ffffff]</title> <desc>Created with Sketch.</desc> <defs> </defs> <g id="Page-1" stroke="none" stroke-width="1" fill="none" fill-rule="evenodd"> <g id="Dribbble-Light-Preview" transform="translate(-104.000000, -5519.000000)" fill="#ffffff"> <g id="icons" transform="translate(56.000000, 160.000000)"> <path d="M57,5377 C57.552,5377 58,5376.552 58,5376 L58,5362 C58,5361.448 57.552,5361 57,5361 L55,5361 L55,5364 C55,5364.552 54.552,5365 54,5365 C53.448,5365 53,5364.552 53,5364 L53,5361 L51,5361 C50.448,5361 50,5361.448 50,5362 L50,5376 C50,5376.552 50.448,5377 51,5377 L53,5377 L53,5374 C53,5373.448 53.448,5373 54,5373 C54.552,5373 55,5373.448 55,5374 L55,5377 L57,5377 Z M58,5379 L50,5379 C48.895,5379 48,5378.105 48,5377 L48,5361 C48,5359.895 48.895,5359 50,5359 L58,5359 C59.105,5359 60,5359.895 60,5361 L60,5377 C60,5378.105 59.105,5379 58,5379 L58,5379 Z M53,5370 L53,5368 C53,5367.448 53.448,5367 54,5367 C54.552,5367 55,5367.448 55,5368 L55,5370 C55,5370.552 54.552,5371 54,5371 C53.448,5371 53,5370.552 53,5370 L53,5370 Z" id="road_round-[#ffffff]"> </path> </g> </g> </g> </g>

</svg>