<svg xmlns="http://www.w3.org/2000/svg" xml:space="preserve" fill-rule="evenodd" stroke-linejoin="round" stroke-miterlimit="2" clip-rule="evenodd" viewBox="0 0 64 64">
  <g id="white">
    <path fill="#f4f4f4" d="M57.63 28.372a7.272 7.272 0 0 1-.062 7.256L47.905 52.36A7.282 7.282 0 0 1 41.671 56H21.05v-.125a7.274 7.274 0 0 1-4.987-3.515L6.401 35.628a7.271 7.271 0 0 1 0-7.256l9.711-16.744A7.272 7.272 0 0 1 22.346 8h19.387a7.293 7.293 0 0 1 6.234 3.628l9.663 16.744ZM36.121 16.275l-.546-.096a7.706 7.706 0 0 0-2.631-.25c0 .462.736 3.541-.461 3.541s-.561-3.216-2.282-3.616c-.274.112-.61.075-.847.437-.238.361.249 1.508.361 1.945a3.03 3.03 0 0 1-.112 1.77c-1.957.075-1.733-4.401-5.037-2.356 0 1.197 2.768 2.718 1.82 4.052-.171.226-.42.381-.698.436-1.459.174-2.057-3.142-3.74-2.818a.827.827 0 0 0-.624.499c-.386.798 1.434 1.92 1.721 2.706a2.94 2.94 0 0 1 0 1.246c-1.409 0-3.105-2.007-4.351-.76a.924.924 0 0 0-.362.798c.124.536 1.097.461 1.371.973.524 1.221-.623 2.094-.623 3.141 0 .499.374.823.2 1.409-.524 1.908-2.456-.149-3.23.573-.773.723.112 2.307.175 3.217.037.574-.275 1.11-.312 1.583-.037.474.287.736.461 1.335.176.598 0 1.309.35 1.845.985 1.596 2.63-2.668 3.366-.898.599 1.484-2.494 1.409-2.494 2.494 0 1.084 1.796 2.056 2.494 2.743a4.044 4.044 0 0 1 1.247 2.269 7.767 7.767 0 0 1-.524 2.568c.312 0 .524.1.873 0 1.546-.474 2.431-3.005 2.182-4.551a33.564 33.564 0 0 1-.985-3.74c0-1.334 1.246-3.616 0-4.588l-.2-.013c0 .187-.274.187-.449.187a.998.998 0 0 1-.673-.261.613.613 0 0 1-.212-.86c.299-.437 1.134-.363 1.247-.973.212-1.335-2.494-1.596-.848-3.217.327-.335.779-.52 1.247-.511.773.074 2.593.624 2.494 1.633-.038.461-.424.836-.25 1.372.175.536.835.287 1.122.972.287.686-.274 1.16-.212 1.808 0 .137-.037.149.212.324.249.174.674.249.811.536.349.798-.612 1.733.636 2.17 0-.537-.113-1.297.349-1.584 0 .138.236.324.348.424.387.623.561 1.197 1.335 1.409a4.35 4.35 0 0 0-.636-2.194c.561 0 .91.76 1.546.573a.311.311 0 0 0 .224-.149l-4.351 16.207h15.048a3.285 3.285 0 0 0 2.856-1.645l9.662-16.744a3.312 3.312 0 0 0 0-3.292L44.527 13.61a3.312 3.312 0 0 0-2.856-1.645H37.37l-1.157 4.318c1.78.335 2.498.833 2.155 3.224-.038.362-.112.836.174 1.085.698.648 1.783-.898 2.107-1.334.063-.15.387-.361.387-.536.423.212.71.611 1.159.748.449.137.823-.112 1.247 0 .112.025.286.025.286.174a2.717 2.717 0 0 0 0 1.048c.212.474.874.835.874 1.408-.063.973-2.07 1.248-1.397 2.495.174.324.698.398 1.048.398 2.181-1.409 2.979.399 2.979 2.494-.71-.038-2.493-.698-2.493.61.037 1.123 2.269 1.086 2.73 2.058.461.973-.486 1.808-.312 2.78.137.723 1.06.686.898 1.708-.175.424-.349.811-.524 1.247l-.424 2.095c-.211.909-1.459 3.465-2.705 3.291-1.608-.225-.699 1.222-.91 1.808-.1.324-.524.648-.811.898a26.683 26.683 0 0 1-2.493 1.769c-.43.358-.904.659-1.409.899-.561.187-.972-.312-1.471-.1-.499.212-.636.86-1.097 1.109-.661.362-3.89 1.085-3.89-.287.349-.112 1.371-.685 1.995-1.009l1.022-.649c.462-.15 1.01.138 1.471-.075.461-.212.536-.797.911-1.121.884-.81 2.006-1.185 2.879-2.058.418-.382.702-.89.81-1.446.138-.586-.324-1.433.138-1.833.461-.399 1.134-.436 1.583-.872a5.847 5.847 0 0 0 .848-5.885c-.985-1.584-2.668-1.222-3.266.436-.138.474-.324 2.457-.599 2.631-.599.362-1.259-1.222-1.471-1.583a13.643 13.643 0 0 1-.985-1.659h-.287a18.703 18.703 0 0 0 1.122 5.299c.075.3.187.686-.062.686a2.31 2.31 0 0 0-.985-.175c-1.459-.037-1.583.611-2.706 1.01-.137.037-.311.287-.448.287.099.972-.362.873-.636 1.596a5.441 5.441 0 0 0-.075 1.87c.038.262-.275.324-.349.324a5.485 5.485 0 0 1-.599-1.658c0-.113 0-.113-.099-.113-.91-.324-1.022.986-1.584.986-.349-.836.249-1.522.35-2.394l-.101-.062c-.461.037-.735.249-1.159.249.063-.898.835-1.122 1.472-1.521.311-.212.374-.437.81-.611.436-.174 1.034-.187 1.247-.474.212-.287-.062-.711 0-1.047.386-1.733 1.234-3.467 1.122-5.373-.025-.911-.91-1.596-.586-2.495a4.998 4.998 0 0 1 1.521-2.157c.698-.286 1.683.187 2.032-.648a1.898 1.898 0 0 0-1.085-2.306 5.419 5.419 0 0 0-2.256-.523l1.805-6.724Zm-4.722 8.569c.211-1.372 1.595-1.883 3.004-1.833l-3.367 12.567a2.248 2.248 0 0 0-.349-.786c-.374-.785.187-1.395-.062-2.194-.249-.797-2.282-1.346-2.917-1.957a.874.874 0 0 1-.312-.86c.387-1.235 1.783-.511 2.768-.798a2.564 2.564 0 0 0 1.122-.836 2.111 2.111 0 0 0 .499-2.057c-.175-.411-.461-.71-.386-1.246Zm-12.543 8.341c.376-.013.744.101 1.047.324a1.246 1.246 0 0 1-.598 2.132A1.258 1.258 0 0 1 17.94 34.4c0-.183.04-.364.118-.53.187-.306.466-.546.798-.685Z"/>
  </g>
</svg>
