<!DOCTYPE svg PUBLIC "-//W3C//DTD SVG 1.1//EN" "http://www.w3.org/Graphics/SVG/1.1/DTD/svg11.dtd">

<!-- Uploaded to: SVG Repo, www.svgrepo.com, Transformed by: SVG Repo Mixer Tools -->
<svg fill="#ffffff" height="800px" width="800px" version="1.1" id="Layer_1" xmlns="http://www.w3.org/2000/svg" xmlns:xlink="http://www.w3.org/1999/xlink" viewBox="-50 -50 612 612" xml:space="preserve" stroke="#ffffff">

<g id="SVGRepo_bgCarrier" stroke-width="0"/>

<g id="SVGRepo_tracerCarrier" stroke-linecap="round" stroke-linejoin="round"/>

<g id="SVGRepo_iconCarrier"> <g> <g> <g> <path d="M106.667,213.333C47.759,213.333,0,261.093,0,320c0,51.601,36.648,94.646,85.333,104.531v66.136 c0,11.782,9.551,21.333,21.333,21.333c11.782,0,21.333-9.551,21.333-21.333v-66.136c48.686-9.884,85.333-52.929,85.333-104.531 C213.333,261.093,165.574,213.333,106.667,213.333z M128,380.343v-17.676c0-11.782-9.551-21.333-21.333-21.333 c-11.782,0-21.333,9.551-21.333,21.333v17.676C60.48,371.555,42.667,347.861,42.667,320c0-35.343,28.657-64,64-64 s64,28.657,64,64C170.667,347.861,152.853,371.555,128,380.343z"/> <path d="M469.333,374.11v-32.776h21.333c11.782,0,21.333-9.551,21.333-21.333s-9.551-21.333-21.333-21.333h-21.333v-21.333 c0-11.782-9.551-21.333-21.333-21.333c-11.782,0-21.333,9.551-21.333,21.333v21.333h-85.333v-21.333 c0-11.782-9.551-21.333-21.333-21.333s-21.333,9.551-21.333,21.333v21.333h-21.333C265.551,298.667,256,308.218,256,320 s9.551,21.333,21.333,21.333h21.333v32.776C273.167,388.865,256,416.418,256,448c0,11.782,9.551,21.333,21.333,21.333h21.333 v21.333c0,11.782,9.551,21.333,21.333,21.333s21.333-9.551,21.333-21.333v-21.333h85.333v21.333 c0,11.782,9.551,21.333,21.333,21.333c11.782,0,21.333-9.551,21.333-21.333v-21.333h21.333c11.782,0,21.333-9.551,21.333-21.333 C512,416.418,494.833,388.865,469.333,374.11z M304.373,426.667c7.376-12.754,21.165-21.333,36.96-21.333h85.333 c15.795,0,29.584,8.579,36.96,21.333H304.373z M341.333,341.333h85.333v21.333h-85.333V341.333z"/> <path d="M334.214,170.667h110.229c26.815,0,46.229-24.956,46.229-53.333c0-22.084-11.758-42.096-29.612-49.886 C455.287,24.575,428.325,0,391.11,0c-23.776,0-43.457,9.332-58.679,24.509c-4.729,4.715-8.545,9.439-11.541,13.842 c-25.762,7.086-43.55,34.34-43.55,65.265C277.34,139.645,301.461,170.667,334.214,170.667z M334.214,79.232 c8.396,0,16.011-4.925,19.456-12.582c1.076-2.392,4.089-7.143,8.887-11.927c7.698-7.676,16.937-12.056,28.553-12.056 c17.732,0,28.437,11.625,28.437,42.667c0,11.782,9.551,21.333,21.333,21.333h3.563c0.574,0,3.563,3.841,3.563,10.667 c0,6.825-2.988,10.667-3.563,10.667H334.214c-6.507,0-14.208-9.904-14.208-24.384C320.006,89.149,327.715,79.232,334.214,79.232z "/> </g> </g> </g> </g>

</svg>