<!DOCTYPE svg PUBLIC "-//W3C//DTD SVG 1.1//EN" "http://www.w3.org/Graphics/SVG/1.1/DTD/svg11.dtd">
<!-- Uploaded to: SVG Repo, www.svgrepo.com, Transformed by: SVG Repo Mixer Tools -->
<svg fill="#ffffff" height="800px" width="800px" version="1.1" id="Layer_1" xmlns="http://www.w3.org/2000/svg" xmlns:xlink="http://www.w3.org/1999/xlink" viewBox="-51.2 -51.2 614.40 614.40" xml:space="preserve" stroke="#ffffff">
<g id="SVGRepo_bgCarrier" stroke-width="0"/>
<g id="SVGRepo_tracerCarrier" stroke-linecap="round" stroke-linejoin="round"/>
<g id="SVGRepo_iconCarrier"> <g> <g> <path d="M492.218,257.164L422.4,233.891c-5.818-2.327-12.8,1.164-15.127,6.982c-2.327,5.818,1.164,12.8,6.982,15.127 l61.673,20.945v211.782H34.909V275.782l61.673-20.945c5.818-2.327,9.309-8.145,6.982-15.127 c-2.327-5.818-8.145-9.309-15.127-6.982L18.618,256c-3.491,2.327-6.982,6.982-6.982,11.636v232.727 c0,6.982,4.655,11.636,11.636,11.636h465.455c6.982,0,11.636-4.655,11.636-11.636V267.636 C500.364,262.982,496.873,258.327,492.218,257.164z"/> </g> </g> <g> <g> <path d="M197.818,221.091c-6.982,0-11.636,4.655-11.636,11.636V256c0,6.982,4.655,11.636,11.636,11.636 s11.636-4.655,11.636-11.636v-23.273C209.455,225.745,204.8,221.091,197.818,221.091z"/> </g> </g> <g> <g> <path d="M256,221.091c-6.982,0-11.636,4.655-11.636,11.636V256c0,6.982,4.655,11.636,11.636,11.636s11.636-4.655,11.636-11.636 v-23.273C267.636,225.745,262.982,221.091,256,221.091z"/> </g> </g> <g> <g> <path d="M314.182,221.091c-6.982,0-11.636,4.655-11.636,11.636V256c0,6.982,4.655,11.636,11.636,11.636 s11.636-4.655,11.636-11.636v-23.273C325.818,225.745,321.164,221.091,314.182,221.091z"/> </g> </g> <g> <g> <path d="M197.818,302.545c-6.982,0-11.636,4.655-11.636,11.636v23.273c0,6.982,4.655,11.636,11.636,11.636 s11.636-4.655,11.636-11.636v-23.273C209.455,307.2,204.8,302.545,197.818,302.545z"/> </g> </g> <g> <g> <path d="M256,302.545c-6.982,0-11.636,4.655-11.636,11.636v23.273c0,6.982,4.655,11.636,11.636,11.636s11.636-4.655,11.636-11.636 v-23.273C267.636,307.2,262.982,302.545,256,302.545z"/> </g> </g> <g> <g> <path d="M314.182,302.545c-6.982,0-11.636,4.655-11.636,11.636v23.273c0,6.982,4.655,11.636,11.636,11.636 s11.636-4.655,11.636-11.636v-23.273C325.818,307.2,321.164,302.545,314.182,302.545z"/> </g> </g> <g> <g> <path d="M430.545,302.545c-6.982,0-11.636,4.655-11.636,11.636v23.273c0,6.982,4.655,11.636,11.636,11.636 s11.636-4.655,11.636-11.636v-23.273C442.182,307.2,437.527,302.545,430.545,302.545z"/> </g> </g> <g> <g> <path d="M81.455,302.545c-6.982,0-11.636,4.655-11.636,11.636v23.273c0,6.982,4.655,11.636,11.636,11.636 s11.636-4.655,11.636-11.636v-23.273C93.091,307.2,88.436,302.545,81.455,302.545z"/> </g> </g> <g> <g> <path d="M430.545,384c-6.982,0-11.636,4.655-11.636,11.636v23.273c0,6.982,4.655,11.636,11.636,11.636s11.636-4.655,11.636-11.636 v-23.273C442.182,388.655,437.527,384,430.545,384z"/> </g> </g> <g> <g> <path d="M81.455,384c-6.982,0-11.636,4.655-11.636,11.636v23.273c0,6.982,4.655,11.636,11.636,11.636s11.636-4.655,11.636-11.636 v-23.273C93.091,388.655,88.436,384,81.455,384z"/> </g> </g> <g> <g> <path d="M290.909,372.364h-69.818c-6.982,0-11.636,4.655-11.636,11.636v81.455c0,6.982,4.655,11.636,11.636,11.636 c6.982,0,11.636-4.655,11.636-11.636v-69.818h46.545v69.818c0,6.982,4.655,11.636,11.636,11.636s11.636-4.655,11.636-11.636V384 C302.545,377.018,297.891,372.364,290.909,372.364z"/> </g> </g> <g> <g> <path d="M267.636,46.545V11.636C267.636,4.655,262.982,0,256,0s-11.636,4.655-11.636,11.636v34.909 c-77.964,5.818-139.636,60.509-139.636,128c0,6.982,4.655,11.636,11.636,11.636H128v267.636c0,6.982,4.655,11.636,11.636,11.636 s11.636-4.655,11.636-11.636V174.545c0-6.982-4.655-11.636-11.636-11.636h-10.473c6.982-52.364,61.673-93.091,126.836-93.091 s119.855,40.727,126.836,93.091h-10.473c-6.982,0-11.636,4.655-11.636,11.636v279.273c0,6.982,4.655,11.636,11.636,11.636 S384,460.8,384,453.818V186.182h11.636c6.982,0,11.636-4.655,11.636-11.636C407.273,107.055,345.6,52.364,267.636,46.545z"/> </g> </g> <g> <g> <path d="M256,104.727c-25.6,0-46.545,20.945-46.545,46.545c0,25.6,20.945,46.545,46.545,46.545 c25.6,0,46.545-20.945,46.545-46.545C302.545,125.673,281.6,104.727,256,104.727z M256,174.545 c-12.8,0-23.273-10.473-23.273-23.273C232.727,138.473,243.2,128,256,128s23.273,10.473,23.273,23.273 C279.273,164.073,268.8,174.545,256,174.545z"/> </g> </g> </g>
</svg>