<!DOCTYPE svg PUBLIC "-//W3C//DTD SVG 1.1//EN" "http://www.w3.org/Graphics/SVG/1.1/DTD/svg11.dtd">
<!-- Uploaded to: SVG Repo, www.svgrepo.com, Transformed by: SVG Repo Mixer Tools -->
<svg fill="#ffffff" height="800px" width="800px" version="1.1" id="Layer_1" xmlns="http://www.w3.org/2000/svg" xmlns:xlink="http://www.w3.org/1999/xlink" viewBox="-47.1 -47.1 486.74 486.74" xml:space="preserve" stroke="#ffffff">
<g id="SVGRepo_bgCarrier" stroke-width="0"/>
<g id="SVGRepo_tracerCarrier" stroke-linecap="round" stroke-linejoin="round"/>
<g id="SVGRepo_iconCarrier"> <g> <g> <path d="M390.854,170.508l-37.107-56.178c-2.004-3.103-5.43-4.849-9.115-4.849h-38.335V78.064h18.101 c4.008,0,15.192-5.236,9.115-16.937L296.406,4.884c-2.004-3.103-5.43-4.849-9.115-4.849H105.376c-3.62,0-7.111,1.875-9.115,4.849 L59.153,60.997c-5.689,12.412,5.107,16.937,9.115,16.937H86.37v31.418H48.034c-3.62,0-7.111,1.875-9.115,4.848L1.812,170.443 c-2.263,3.297-4.913,14.804,9.115,16.937h26.182v194.198c0,6.012,4.849,10.925,10.925,10.925h296.598 c6.012,0,10.925-4.848,10.925-10.925V187.445h26.182C395.509,185.118,392.988,173.805,390.854,170.508z M111.258,21.756h170.214 l22.691,34.392H88.632L111.258,21.756z M31.226,165.53l22.691-34.392H86.37v34.392H31.226z M223.226,370.718h-53.721v-80.356 h53.721V370.718z M333.836,370.718h-0.129h-88.695v-91.346c0-6.012-4.848-10.925-10.925-10.925h-75.572 c-6.012,0-10.925,4.848-10.925,10.925v91.281h-88.63V187.445h38.335c6.012,0,10.925-4.848,10.925-10.925V77.934h176.356v98.521 c0,6.012,4.849,10.925,10.925,10.925h38.335V370.718z M306.297,165.53v-34.392h32.453l22.691,34.392H306.297z"/> </g> </g> <g> <g> <path d="M196.333,99.72c-36.525,0-66.392,29.737-66.392,66.392c0,36.525,29.737,66.392,66.392,66.392 c36.525,0,66.392-29.737,66.392-66.392C262.725,129.522,232.858,99.72,196.333,99.72z M196.333,210.589 c-24.566,0-44.541-20.04-44.541-44.541c0-24.566,20.04-44.541,44.541-44.541c24.501,0,44.541,20.04,44.541,44.541 C240.875,190.678,220.899,210.589,196.333,210.589z"/> </g> </g> <g> <g> <path d="M196.333,132.69c-6.012,0-10.925,4.849-10.925,10.925v11.572h-1.939c-6.012,0-10.925,4.848-10.925,10.925 c0,6.012,4.848,10.925,10.925,10.925h12.865c6.012,0,10.925-4.849,10.925-10.925v-22.497 C207.258,137.603,202.345,132.69,196.333,132.69z"/> </g> </g> <g> <g> <path d="M106.281,219.704H94.45c-6.012,0-10.925,4.848-10.925,10.925c0,6.012,4.849,10.925,10.925,10.925h11.83 c6.012,0,10.925-4.848,10.925-10.925C117.206,224.617,112.357,219.704,106.281,219.704z"/> </g> </g> <g> <g> <path d="M106.281,271.938H94.45c-6.012,0-10.925,4.849-10.925,10.925c0,6.012,4.849,10.925,10.925,10.925h11.83 c6.012,0,10.925-4.848,10.925-10.925C117.206,276.851,112.357,271.938,106.281,271.938z"/> </g> </g> <g> <g> <path d="M106.281,324.108H94.45c-6.012,0-10.925,4.848-10.925,10.925c0,6.012,4.849,10.925,10.925,10.925h11.83 c6.012,0,10.925-4.849,10.925-10.925C117.206,329.086,112.357,324.108,106.281,324.108z"/> </g> </g> <g> <g> <path d="M298.216,219.704h-11.83c-6.077,0-10.925,4.913-10.925,10.925c0,6.012,4.849,10.925,10.925,10.925h11.83 c6.012,0,10.925-4.849,10.925-10.925C309.141,224.617,304.293,219.704,298.216,219.704z"/> </g> </g> <g> <g> <path d="M298.151,271.938h-11.83c-6.012,0-10.925,4.849-10.925,10.925c0,6.012,4.849,10.925,10.925,10.925h11.83 c6.012,0,10.925-4.848,10.925-10.925C309.077,276.851,304.228,271.938,298.151,271.938z"/> </g> </g> <g> <g> <path d="M298.151,324.108h-11.83c-6.012,0-10.925,4.848-10.925,10.925c0,6.012,4.849,10.925,10.925,10.925h11.83 c6.012,0,10.925-4.849,10.925-10.925C309.077,329.086,304.228,324.108,298.151,324.108z"/> </g> </g> </g>
</svg>