<svg xmlns="http://www.w3.org/2000/svg" xmlns:xlink="http://www.w3.org/1999/xlink" width="32" height="32" viewBox="0 0 32 32"><defs><clipPath id="b"><rect width="32" height="32"/></clipPath></defs><g id="a"><g transform="translate(1.149 8.242)"><path d="M-10008-10482.843l16.188,10.105,13.515-10.105-16.512-8.157Z" transform="translate(10008 10492.43)" fill="#00c1ff"/></g><g transform="translate(-2.339 4.074)"><path d="M-9991.4-10488.85l11.725,7.117.133-10.134-11.857-6.12Z" transform="translate(9999.999 10501.578)" fill="#00b41a"/><path d="M-9989.369-10489.464l11.91,6.406v-1.086l-11.91-6.3Z" transform="translate(9997.982 10495.559)" fill="#00580d"/><path d="M-9989.369-10489.464l11.91,6.406v-1.086l-11.91-6.3Z" transform="translate(9997.982 10497.388)" fill="#00580d"/><path d="M-9989.369-10489.464l11.91,6.593.086-1.138-12-6.435Z" transform="translate(9997.982 10499.217)" fill="#00580d"/><path d="M-9989.369-10488.1l11.757,7.009v-2.8l-11.757-6.552Z" transform="translate(9997.982 10501.044)" fill="#0089cf"/><path d="M-9977.839-10488.589l7.228-5.24.233-9.236-7.329,4.376Z" transform="translate(9998.165 10508.451)" fill="#004b12"/><path d="M-9991.34-10489.177l11.824,6.146,7.4-4.48-11.895-5.35Z" transform="translate(9999.967 10492.854)" fill="#02ff26"/><path d="M34.45,19.64l7.271-4.419-.1,1.09L34.45,20.749Z" transform="translate(-13.991 -8.267)" fill="#002612"/><path d="M34.45,19.64l7.271-4.419-.1,1.09L34.45,20.749Z" transform="translate(-13.991 -6.438)" fill="#002612"/><path d="M34.45,19.64,41.624,15.3v1.011L34.45,20.749Z" transform="translate(-13.991 -4.609)" fill="#002612"/><path d="M34.316,19.905l7.218-4.576v2.2l-7.218,5.131Z" transform="translate(-13.991 -2.781)" fill="#0071a9"/><path d="M9.167,13.33V11.52l10.321,5.646v2.289Z" fill="#03243e"/></g><path d="M642.145-101.453l.231-.11v-1.645l-9.708-5.116h0l-.334.136Z" transform="translate(-625.339 122.474)" fill="#0071a9"/><path d="M634.258-105.855v2.044l.922.51v-2.1Z" transform="translate(-625.339 122.474)" fill="#0089cf"/><path d="M633.9-105.758v2.076l.966.581v-2.128Z" transform="translate(-621.339 124.474)" fill="#0089cf"/><path d="M632.327-108.2v1.444l9.818,5.3V-103Z" transform="translate(-625.339 122.474)" fill="#73d0ff"/><path d="M633.951-114.765l5.174-2.511,9.352,4.427-5.031,2.964Z" transform="translate(-625.339 122.474)" fill="#01cf1e"/></g></svg>