<?xml version="1.0" encoding="UTF-8" standalone="no"?>
<!DOCTYPE svg PUBLIC "-//W3C//DTD SVG 1.1//EN" "http://www.w3.org/Graphics/SVG/1.1/DTD/svg11.dtd">
<svg width="100%" height="100%" viewBox="0 0 26 26" version="1.1" xmlns="http://www.w3.org/2000/svg" xmlns:xlink="http://www.w3.org/1999/xlink" xml:space="preserve" xmlns:serif="http://www.serif.com/" style="fill-rule:evenodd;clip-rule:evenodd;stroke-linejoin:round;stroke-miterlimit:2;">
    <g>
        <path d="M17.483,6.964C19.822,11.98 19,17.321 15.648,18.884L13.21,19.756L4.411,1.754L7.172,0.708C10.524,-0.855 15.144,1.948 17.483,6.964Z" style="fill:#171919;"/>
        <path d="M16.995,16.235C17.372,16.186 17.733,16.292 18.013,16.504C18.05,16.532 25.054,22.625 25.097,22.665C25.374,22.922 25.384,23.142 25.436,23.545C25.556,24.469 24.894,25.318 23.958,25.44C23.443,25.507 23.135,25.47 22.777,25.152C22.732,25.112 16.172,18.54 16.139,18.503C15.959,18.305 15.836,18.053 15.8,17.769C15.702,17.021 16.238,16.334 16.995,16.235Z" style="fill:#484d4f;"/>
        <path d="M19.299,17.985C19.753,17.926 20.189,18.054 20.526,18.308C20.571,18.343 25.054,22.625 25.097,22.665C25.374,22.922 25.149,23.066 25.201,23.468C25.321,24.392 24.659,25.242 23.723,25.363C23.209,25.43 23.135,25.47 22.777,25.152C22.732,25.112 18.306,20.764 18.266,20.719C18.05,20.48 17.901,20.176 17.857,19.834C17.74,18.932 18.386,18.104 19.299,17.985Z" style="fill:#9bb4c5;"/>
        <path d="M24.447,22.633C24.85,22.581 25.196,22.7 25.43,22.934C25.462,22.966 25.402,22.898 25.43,22.934C25.611,23.172 25.699,23.493 25.656,23.862C25.556,24.709 24.801,25.485 23.971,25.592C23.514,25.652 23.148,25.444 22.96,25.134C22.826,24.915 22.766,24.635 22.803,24.322C22.9,23.495 23.637,22.739 24.447,22.633Z" style="fill:#171919;"/>
        <path d="M14.654,8.042C16.993,13.058 16.171,18.399 12.819,19.962C9.467,21.525 4.847,18.722 2.508,13.706C0.169,8.69 0.991,3.349 4.343,1.786C7.695,0.223 12.315,3.026 14.654,8.042Z" style="fill:#171919;"/>
        <clipPath id="_clip1">
            <path d="M14.654,8.042C16.993,13.058 16.171,18.399 12.819,19.962C9.467,21.525 4.847,18.722 2.508,13.706C0.169,8.69 0.991,3.349 4.343,1.786C7.695,0.223 12.315,3.026 14.654,8.042Z"/>
        </clipPath>
        <g clip-path="url(#_clip1)">
            <path d="M14.828,8.089C12.911,3.977 9.28,1.606 6.725,2.797C4.17,3.989 3.652,8.294 5.569,12.406C7.487,16.518 11.118,18.889 13.673,17.697C16.228,16.506 16.745,12.2 14.828,8.089Z" style="fill:#83b7eb;"/>
        </g>
        <path d="M10.716,6.663C10.961,6.952 11.199,7.337 11.418,7.782C11.753,8.463 10.837,8.64 10.37,7.592C9.996,6.754 8.821,6.088 8.274,5.738C7.523,5.258 7.968,4.631 8.328,4.777C8.61,4.891 8.891,5.046 9.164,5.232C9.726,5.613 10.258,6.121 10.716,6.663Z" style="fill:#edf3f5;"/>
        <path d="M14.654,8.042C16.993,13.058 16.171,18.399 12.819,19.962C9.467,21.525 4.847,18.722 2.508,13.706C0.169,8.69 0.991,3.349 4.343,1.786C7.695,0.223 12.315,3.026 14.654,8.042ZM13.21,8.715C11.293,4.603 7.662,2.232 5.107,3.424C2.552,4.615 2.034,8.921 3.952,13.033C5.869,17.144 9.5,19.515 12.055,18.324C14.61,17.133 15.128,12.827 13.21,8.715Z" style="fill:#484d4f;"/>
    </g>
</svg>
