<?xml version="1.0" encoding="UTF-8" standalone="no"?>
<!DOCTYPE svg PUBLIC "-//W3C//DTD SVG 1.1//EN" "http://www.w3.org/Graphics/SVG/1.1/DTD/svg11.dtd">
<svg width="100%" height="100%" viewBox="0 0 26 26" version="1.1" xmlns="http://www.w3.org/2000/svg" xmlns:xlink="http://www.w3.org/1999/xlink" xml:space="preserve" xmlns:serif="http://www.serif.com/" style="fill-rule:evenodd;clip-rule:evenodd;stroke-linejoin:round;stroke-miterlimit:2;">
    <g>
        <g>
            <path id="Icon_ionic-ios-water" d="M21.74,22.102C21.518,21.691 21.236,21.314 20.905,20.983C20.893,20.97 20.876,20.963 20.857,20.963C20.839,20.963 20.822,20.97 20.81,20.983C20.48,21.313 20.199,21.689 19.977,22.1C19.614,22.698 19.41,23.379 19.385,24.079L19.385,24.122C19.385,24.328 19.419,24.531 19.486,24.725C19.523,24.831 19.569,24.933 19.626,25.03C19.871,25.482 20.341,25.77 20.856,25.781C21.67,25.781 22.329,25.038 22.329,24.122C22.311,23.409 22.109,22.713 21.74,22.102Z" style="fill:#8cdcff;fill-rule:nonzero;"/>
            <path id="Path_3604" d="M19.385,24.041C19.747,24.405 20.271,24.61 20.817,24.602C21.343,24.596 21.844,24.392 22.193,24.041C22.541,23.69 22.377,25.795 20.817,25.783C19.256,25.77 19.385,24.041 19.385,24.041Z" style="fill:#055477;fill-rule:nonzero;"/>
            <path d="M5.426,0.727C6.184,0.727 6.871,1.029 7.369,1.518C7.437,1.584 11.194,5.937 11.256,6.011C11.655,6.492 11.256,6.679 11.256,7.35C11.256,8.891 9.99,10.141 8.43,10.141C7.571,10.141 7.442,10.191 6.924,9.595C6.857,9.519 3.207,5.07 3.151,4.99C2.847,4.551 2.668,4.022 2.668,3.451C2.668,1.948 3.905,0.727 5.426,0.727Z" style="fill:#dc691d;"/>
            <path d="M6.362,4.544C8.21,3.076 10.15,2.44 10.692,3.121L11.965,4.752L5.258,10.053L3.994,8.441C3.452,7.758 4.513,6.013 6.362,4.544Z" style="fill:#ffa76c;"/>
            <path d="M7.6,6.127C9.449,4.66 11.389,4.023 11.931,4.705C12.473,5.387 11.413,7.133 9.564,8.6C7.716,10.069 5.775,10.706 5.233,10.024C4.691,9.341 5.752,7.595 7.6,6.127Z" style="fill:#dc691d;"/>
            <path d="M7.05,9.518C7.024,9.498 7,9.475 6.981,9.45C6.965,9.43 6.952,9.408 6.94,9.386C6.974,9.427 7.01,9.471 7.05,9.518Z" style="fill:#4e504f;"/>
            <path d="M6.839,9.571L6.728,9.439C6.484,8.964 7.155,7.902 8.288,7.003C9.45,6.08 10.669,5.668 11.044,6.064L11.066,6.09C12.829,8.121 19.401,15.723 19.454,15.788C19.853,16.269 19.933,16.908 19.863,18.297C19.813,19.277 21.472,19.702 20.558,20.615C19.667,21.507 18.703,19.834 17.445,19.919C16.59,19.977 15.64,19.969 15.121,19.372C15.064,19.305 8.572,11.631 6.839,9.571Z" style="fill:#cfd6e5;"/>
            <path d="M10.026,7.151L9.916,7.019C9.672,6.544 10.549,6.556 10.925,6.952L10.947,6.978C12.709,9.009 18.737,16.067 18.79,16.131C19.189,16.612 19.269,17.251 19.199,18.64C19.149,19.621 18.624,19.456 18.373,18.125C18.214,17.283 18.284,17.005 17.765,16.408C17.707,16.341 11.76,9.21 10.026,7.151Z" style="fill:#fff;"/>
            <path d="M6.839,9.571L6.728,9.439C6.598,9.185 6.729,8.764 7.051,8.29L16.52,18.885L19.601,20.8C19.546,20.804 18.747,20.301 18.083,20.014C17.769,19.879 17.205,19.933 17.169,19.935C16.392,19.969 15.585,19.905 15.121,19.372C15.064,19.305 8.572,11.631 6.839,9.571Z" style="fill:#828b9d;"/>
        </g>
    </g>
</svg>
