<svg xmlns="http://www.w3.org/2000/svg" xml:space="preserve" fill-rule="evenodd" stroke-linejoin="round" stroke-miterlimit="2" clip-rule="evenodd" viewBox="0 0 64 64">
  <g id="grey">
    <path fill="#707070" d="m27.155 42.026.003 1.248-.772.477V41.64l.769.386Zm-8.432-17.759-.009 7.17-.772-.396-.027-7.187.808.413ZM17 36.948v1.825l-1.259.673v-3.127l1.259.629Zm16.971 6.579v4.45l-.515.326V44l.515-.473Zm-7.609-8.161-.02-7.283.8.401.016 7.291c-.024-.019-.796-.409-.796-.409Z"/>
    <path fill="#b5b5b5" d="m24.842 34.585-.044-7.274 1.544.772.02 7.283-1.52-.781Zm1.544 7.056v2.11l-1.544-.771-.015-2.103 1.559.764Zm-8.471-17.787.027 7.187-.667-.343-1.275.505v-8.299l1.915.95Z"/>
    <path fill="#d4d4d4" d="M43 44.001V29.244l-5 4.193-.366.301L6 17.896v-3.099l31.634 15.57 7.213-5.915v3.368l-1.165.956v17.252l-2.109-.633L43 44.001Z"/>
    <path fill="#c9c9c9" d="M52.196 30.573v21.751a.985.985 0 0 1-1.968 0V30.107a3.67 3.67 0 0 0 1.968.466Z"/>
    <path fill="#444" d="M50.228 30.107c-1.653-.899-2.935-2.998-3.176-5.528-.335-3.511 1.464-6.522 4.016-6.727 2.553-.204 4.894 2.477 5.228 5.987.335 3.51-1.464 6.523-4.017 6.728l-.083.006a3.67 3.67 0 0 1-1.968-.466Z"/>
  </g>
  <g id="white">
    <path fill="#fefffe" d="M51.648 29.44c-.469.038-.951-.129-1.374-.366a3.915 3.915 0 0 1-.864-.753 5.571 5.571 0 0 1-.93-1.548 7.173 7.173 0 0 1-.492-2.037c-.155-1.652.246-3.238 1.073-4.242.321-.389.858-.867 1.599-.933l.015-.001c1.034-.084 1.846.665 2.238 1.119.373.432.686.954.929 1.548.259.635.425 1.32.492 2.038.155 1.651-.245 3.237-1.072 4.241-.321.39-.859.867-1.6.933l-.014.001ZM9.995 19.897V39.7l-2.13-1.065V18.83l2.13 1.067Zm26.773 13.407v19.783l-2.797-1.399V31.904l2.797 1.4Zm-3.312 11.872v3.127l-2.797-1.398v-3.128l2.797 1.399Zm-17.715-8.858v3.128l-2.797-1.399V34.92l2.797 1.398Z"/>
  </g>
  <g id="blue">
    <path fill="#83cbfb" d="m24.798 27.31.044 7.275-6.128-3.148v-7.174l6.084 3.047Zm9.173 4.594v7.371l-6.813-3.5-.016-7.291 6.829 3.42Z"/>
    <path fill="#9de2fc" d="M16 22.896v8.307l-3.056 1.211L13 36.5l-1.94 1.312L11 20.4l5 2.496Zm27 21.105-5 4.885V33.437l5-4.193v14.757Z"/>
    <path fill="#2cabfc" d="m50.538 18.149.025-.002c2.523-.204 4.836 2.475 5.167 5.983.329 3.497-1.436 6.499-3.946 6.721l-.024.001c-2.523.205-4.837-2.474-5.167-5.982-.33-3.497 1.435-6.499 3.945-6.721Zm1.11 11.291.014-.001c.741-.066 1.279-.543 1.6-.933.827-1.004 1.227-2.59 1.072-4.241a7.146 7.146 0 0 0-.492-2.038 5.608 5.608 0 0 0-.929-1.548c-.392-.454-1.204-1.203-2.238-1.119l-.015.001c-.741.066-1.278.544-1.599.933-.827 1.004-1.228 2.59-1.073 4.242.068.717.233 1.403.492 2.037.243.595.556 1.116.93 1.548.194.224.49.52.864.753.423.237.905.404 1.374.366Z"/>
  </g>
  <g id="brown">
    <path fill="#6c3e27" d="M12.944 32.455 16.514 30 34 39.338l-.029 3.065.029 1.16-.544.5v1.176L12.944 34.983v-2.528Z"/>
  </g>
  <g id="green">
    <path fill="#88978f" d="m44.784 24.504-7.15 5.863L6 14.797l8-4.825 30.784 14.532ZM11.06 20.43v18.641l-1.065.629V19.897l1.065.533ZM38 33.437v18.187l-1.232 1.362V33.304l.866.434.366-.301Zm5.682-4.661.968-.794v16.666l-.968 1.38V28.776Z"/>
  </g>
  <g id="black">
    <path fill="#010001" d="m49.373 24.549-.188-.099-.017-2.973c-.033-.467.191-.744.671-.848 0 0 1.651.103 3.253 1.551.205.278.294.606.286.972l.019 3.531-.405-.215.002.438c.001.122-.075.18-.169.13l-.342-.181c-.094-.05-.171-.189-.172-.311l-.002-.438-2.254-1.195.002.438c.001.122-.075.18-.169.13l-.342-.181c-.094-.05-.171-.189-.171-.311l-.002-.438Zm.362-.694c-.141-.074-.255-.032-.254.095.001.128.116.292.256.366.141.075.255.032.254-.095 0-.127-.115-.291-.256-.366Zm3.132-.3c-.001-.183-.115-.394-.255-.47l-2.663-1.45c-.14-.076-.253.011-.251.194l.007 1.445c.001.183.116.393.256.47l2.663 1.45c.14.076.252-.011.251-.194l-.008-1.445Zm-.428-1.371-1.895-1.004a.173.173 0 0 0-.172.005.18.18 0 0 0-.085.153l.001.032c0 .065.036.125.094.156l1.894 1.004a.175.175 0 0 0 .257-.157v-.033a.177.177 0 0 0-.094-.156Zm.213 3.218c-.141-.075-.254-.032-.254.095.001.128.116.292.257.366.14.075.254.032.253-.095 0-.127-.115-.291-.256-.366Zm-.502 3.336a.956.956 0 0 1-.475-.609l.2.018a.625.625 0 0 0 .283.363c.129.065.216.042.216-.089 0-.136-.128-.252-.271-.379-.18-.16-.381-.341-.381-.612 0-.208.149-.307.414-.174.22.112.358.312.403.51l-.194-.025a.446.446 0 0 0-.224-.26c-.113-.057-.18-.036-.18.062 0 .103.11.202.242.317.183.167.41.371.41.672 0 .275-.194.332-.443.206Zm-1.192-.603a.87.87 0 0 1-.492-.816v-.882l.216.109v.882c0 .26.112.39.276.473.162.082.275.066.275-.194v-.882l.216.109v.882c0 .421-.225.454-.491.319Zm-1.703-2.31.515.26c.305.154.404.391.404.585 0 .12-.051.206-.162.211a.608.608 0 0 1 .207.435c0 .197-.11.366-.422.208l-.542-.274v-1.425Zm.486.82c.145.073.215.037.215-.067 0-.084-.031-.189-.181-.264l-.304-.155v.349l.27.137Zm.069.66c.148.074.189-.007.189-.094 0-.106-.045-.233-.241-.332l-.287-.145v.399l.339.172Z"/>
  </g>
</svg>
