<svg xmlns="http://www.w3.org/2000/svg" xml:space="preserve" fill-rule="evenodd" stroke-linejoin="round" stroke-miterlimit="2" clip-rule="evenodd" viewBox="0 0 40 40">
  <g id="yellow">
    <path fill="#fbd508" d="M20.733 32.026 2.462 16.695l16.46-9.504 18.336 15.295-16.525 9.54ZM6.274 16.157l-1.433.828 1.225 1.028.208-1.856Zm3.06-1.767-1.302.752-.463 4.132 1.113.934.652-5.818Zm3.385-1.954-1.627.939-.907 8.094 1.391 1.167 1.143-10.2Zm3.558-2.054-1.8 1.039-1.398 12.476 1.539 1.291 1.659-14.806Zm3.451-1.037-.678-.565-1.015.586-1.914 17.083 1.544 1.296 2.063-18.4Zm3.071 2.563L21.231 10.6l-2.063 18.407 1.446 1.213.142-.083 2.043-18.229Zm2.844 2.372-1.34-1.118-1.789 15.96 1.567-.904 1.562-13.938Zm2.961 2.469-1.457-1.215-1.308 11.669 1.703-.983 1.062-9.471Zm2.792 2.33-1.289-1.075-.807 7.201 1.507-.87.589-5.256Zm2.855 2.382L32.9 20.333l-.335 2.987 1.58-.912.106-.947Z"/>
  </g>
</svg>
