<svg xmlns="http://www.w3.org/2000/svg" xml:space="preserve" fill-rule="evenodd" stroke-linejoin="round" stroke-miterlimit="2" clip-rule="evenodd" viewBox="0 0 64 64">
  <g id="green">
    <path fill="#2fcf08" d="M28.5 40.5c-.397-.684-4.004-15-4.004-15H26l5 17-2.297.5s.194-1.816-.203-2.5Z"/>
    <path fill="#2fcf08" d="m39 30-5.5 14h1.274L40.5 30.5 39 30Z"/>
    <path fill="#00b41a" d="M28.318 40c-6.846-2.023-9.995-5.682-12.072-9.816.279-.419 9.461 4.15 11.502 7.566l.57 2.25Z"/>
    <path fill="#00b41a" d="M33.5 26.5c-2.591 2.375-4.433 5.906-4.5 9.2l.761 2.587c1.884.165 5.584-8.769 3.739-11.787Z"/>
    <path fill="#00b41a" d="M36.895 39c3.757-2.768 7.871-4.153 12.254-4.5-3.287 4.352-7.44 6.381-12.678 5.5l.424-1Z"/>
  </g>
  <g id="brown">
    <path fill="#a2886b" d="M23.254 41h18.984l-4.746 16.766H28L23.254 41Z"/>
    <path fill="#c19674" d="m21.762 41 4.746 16.766h5.33L28.278 41h-6.516Z"/>
  </g>
  <g id="whte" fill="#ebebeb">
    <path d="M22.753 15.243a1.744 1.744 0 0 1 3.486 0 1.745 1.745 0 0 1 2.382-.638 1.745 1.745 0 0 1 .638 2.382 1.745 1.745 0 0 1 2.382.638c.481.833.195 1.9-.638 2.382a1.744 1.744 0 0 1 0 3.486 1.745 1.745 0 0 1 .638 2.382 1.745 1.745 0 0 1-2.382.638 1.745 1.745 0 0 1-.638 2.382c-.833.481-1.9.195-2.382-.638a1.744 1.744 0 0 1-3.486 0 1.745 1.745 0 0 1-2.382.638 1.745 1.745 0 0 1-.638-2.382 1.745 1.745 0 0 1-2.382-.638 1.745 1.745 0 0 1 .638-2.382 1.744 1.744 0 0 1 0-3.486 1.745 1.745 0 0 1-.638-2.382 1.745 1.745 0 0 1 2.382-.638 1.745 1.745 0 0 1 .638-2.382 1.745 1.745 0 0 1 2.382.638Z"/>
    <path d="M38.007 22.993a1.744 1.744 0 0 1 3.486 0 1.745 1.745 0 0 1 2.382-.638 1.745 1.745 0 0 1 .638 2.382 1.745 1.745 0 0 1 2.382.638c.481.833.195 1.9-.638 2.382a1.744 1.744 0 0 1 0 3.486 1.745 1.745 0 0 1 .638 2.382 1.745 1.745 0 0 1-2.382.638 1.745 1.745 0 0 1-.638 2.382c-.833.481-1.9.195-2.382-.638a1.744 1.744 0 0 1-3.486 0 1.745 1.745 0 0 1-2.382.638 1.745 1.745 0 0 1-.638-2.382 1.745 1.745 0 0 1-2.382-.638 1.745 1.745 0 0 1 .638-2.382 1.744 1.744 0 0 1 0-3.486 1.745 1.745 0 0 1-.638-2.382 1.745 1.745 0 0 1 2.382-.638 1.745 1.745 0 0 1 .638-2.382 1.745 1.745 0 0 1 2.382.638Z"/>
  </g>
  <g id="orange" fill="#fca303">
    <circle cx="24.512" cy="21.75" r="2.75"/>
    <circle cx="39.75" cy="29.5" r="2.75"/>
  </g>
</svg>
