<svg xmlns="http://www.w3.org/2000/svg" xml:space="preserve" fill-rule="evenodd" stroke-linejoin="round" stroke-miterlimit="2" clip-rule="evenodd" viewBox="0 0 64 64">
  <g id="grey">
    <path fill="#ebebeb" d="M30.242 58.744c-1.324-.044-2.649-.48-3.595-1.273-.698-.586-1.082-1.277-1.162-1.967h-.016V26.39c1.034 2.535 2.837 2.735 4.773 2.931v29.423Zm15.357-30.826-.478 7.4-32.639-17.574-2.028-7.943 35.145 18.117Z"/>
    <path fill="#b5b5b5" d="m32.985 28.784 1.905 1.025-.034 26.655c-1.111 1.746-2.691 2.409-4.614 2.28V29.321c.963.032 1.927-.143 2.743-.537Z"/>
    <path fill="#c9c9c9" d="M30.242 27.307v2.014c-1.936-.196-3.739-.396-4.773-2.931v-1.653l4.773 2.57Z"/>
    <path fill="#c2bdbd" d="m53.546 23.452-7.947 4.466L10.454 9.801l7.9-4.561 35.192 18.212Z"/>
    <path fill="#808080" d="m45.908 26.203.016-.672 4.424-2.6-.016.672-4.424 2.6ZM19.806 12.688l.016-.672 4.424-2.6-.016.672-4.424 2.6Z"/>
    <path fill="#d4d4d4" d="m39.869 22.525 6.055 3.006-.016.672-6.055-3.006.016-.672ZM13.767 9.009l6.055 3.007-.016.672-6.055-3.006.016-.673Z"/>
    <path fill="#909090" d="m30.242 27.307 2.743 1.477c-.816.394-1.78.569-2.743.537v-2.014Zm23.304-3.855L51.64 31.5l-6.519 3.818.478-7.4 7.947-4.466Zm-9.132-3.463 5.934 2.942-4.424 2.6-6.055-3.006 4.545-2.536ZM18.312 6.474l5.934 2.942-4.424 2.6-6.055-3.007 4.545-2.535Z"/>
  </g>
</svg>
