<svg xmlns="http://www.w3.org/2000/svg" xml:space="preserve" fill-rule="evenodd" stroke-linejoin="round" stroke-miterlimit="2" clip-rule="evenodd" viewBox="0 0 64 64">
  <g id="white">
    <path fill="#fff" d="M43.325 34.104V15.92c0-.468-.29-.848-.647-.848l-25.28-.009-.768 2.453-6.122-.002c-.3.043-.477.186-.537.427l-1.975 8.441-3.315.754c-.659.321-.905.661-1.114 1.431l.034 5.537h1.313c.569-.892 1.689-1.498 2.978-1.498 1.289 0 2.41.606 2.978 1.498h24.52c.514-1.013 1.712-1.725 3.107-1.725 1.395 0 2.593.712 3.108 1.725h1.72ZM4.04 36.255l.002.001.619-.001-.001-.001-.62.001Zm7.089-.013 15.008-.03-15.007.026-.001.004Z"/>
  </g>
  <g id="red">
    <path fill="#a50101" d="M11.251 17.514c0-1.1.892-1.804 1.992-1.804 1.098 0 1.99.704 1.99 1.804h-3.982Z"/>
    <path fill="#d20000" d="m31.343 20.082 1.565 1.585-1.914 1.946 2.689-.022-.014 2.262-2.69.021 1.889 1.914-1.586 1.612-1.888-1.914-.018 2.729-2.229.018.018-2.73-1.915 1.946-1.565-1.586 1.915-1.946-2.69.022.015-2.26 2.689-.022-1.89-1.914 1.586-1.612 1.89 1.915.018-2.731 2.228-.017-.018 2.729 1.915-1.945Zm-4.877 2.922v.762h1.403a4.525 4.525 0 0 0 0 1.091c.077.364.545.691.699 1.163.154.473-.27.583-.699 1.055-.192.176-.35.386-.467.619a3.142 3.142 0 0 1 1.166-.619c.506-.073.737-.873.621-1.273-.115-.4-.39-.436-.39-.436l-.231-.728.231-.872h1.48v-.764h-1.711v-.836h-.699v.838h-1.403Z"/>
  </g>
  <g id="grey">
    <path fill="#131313" d="M38.493 33c-1.92 0-3.5 1.58-3.5 3.5s1.58 3.5 3.5 3.5 3.5-1.58 3.5-3.5-1.58-3.5-3.5-3.5ZM7.831 33c-1.92 0-3.5 1.58-3.5 3.5s1.58 3.5 3.5 3.5a3.517 3.517 0 0 0 3.426-3.5A3.517 3.517 0 0 0 7.831 33Z"/>
    <path fill="#cecece" d="M38.5 34.665a1.85 1.85 0 0 0-1.844 1.835 1.851 1.851 0 0 0 1.844 1.835 1.85 1.85 0 0 0 1.845-1.835 1.84 1.84 0 0 0-1.845-1.835Zm-30.661 0A1.85 1.85 0 0 0 5.995 36.5a1.84 1.84 0 0 0 1.844 1.835A1.85 1.85 0 0 0 9.683 36.5a1.84 1.84 0 0 0-1.844-1.835Z"/>
    <path fill="#b1b1b1" d="m41.975 36.186 1.11-.002c.367 0 .665-.356.665-.795v-1.285h-2.145c-.515-1.013-1.713-1.725-3.108-1.725s-2.593.712-3.107 1.725H10.87c-.568-.892-1.689-1.498-2.978-1.498-1.289 0-2.409.606-2.978 1.498H3.25l.013 1.541c.016.339.185.523.444.611l.637-.001A3.512 3.512 0 0 1 7.831 33a3.514 3.514 0 0 1 3.487 3.237l23.691-.039A3.513 3.513 0 0 1 38.493 33a3.511 3.511 0 0 1 3.482 3.186Z"/>
    <path fill="#272727" d="M56.912 32.251c-6.322-1.028-12.523-1.421-18.492-.616-1.262.17-2.515.396-3.756.677-.286.04-.456.172-.514.396l-4.879 5.884-3.236.348c-.595.064-1.609.034-2.158.233-.706.255-.877.741-.877.741v3.24s.689 1.017.932 1.105l4.979.023 3.375.572h20.717l7.235-.428c.342 0 .621-.352.621-.785l.034-4.055-2.998-6.793c-.254-.444-.641-.542-.983-.542Z"/>
    <path fill="#131313" d="M56.193 41.953c-1.845 0-3.344 1.455-3.344 3.248 0 1.794 1.499 3.249 3.344 3.249 1.846 0 3.344-1.455 3.344-3.249 0-1.793-1.498-3.248-3.344-3.248Zm0 1.546c.966-.001 1.762.768 1.762 1.702 0 .935-.795 1.705-1.762 1.705-.966 0-1.762-.77-1.762-1.705.001-.934.796-1.702 1.762-1.702Zm-27.174-1.198c-1.845 0-3.344 1.456-3.344 3.248 0 1.794 1.499 3.249 3.344 3.249 1.846 0 3.344-1.455 3.344-3.249 0-1.792-1.498-3.248-3.344-3.248Zm.012 1.545c.966 0 1.762.769 1.763 1.703-.02.922-.809 1.67-1.762 1.67s-1.743-.748-1.762-1.67c.001-.934.796-1.703 1.761-1.703Z"/>
    <path fill="#cecece" d="M56.193 43.499c-.966 0-1.761.768-1.762 1.702.02.922.809 1.67 1.762 1.67s1.743-.748 1.762-1.67c0-.934-.796-1.703-1.762-1.702Zm-27.162.347c-.965 0-1.76.769-1.761 1.703.019.922.809 1.67 1.762 1.67s1.742-.748 1.762-1.67c-.001-.934-.797-1.703-1.763-1.703Z"/>
    <path fill="#585858" d="M60.846 39.634c.067-.092-.16-.451-.16-.451-.051-.141-.492-.061-.647-.06l-18.433.078-1.951-6.943c-.036-.161-.047-.275-.217-.275h-.414c-.108 0 2.113 7.589 2.113 7.589a.36.36 0 0 0 .355.281l19.062-.071a.365.365 0 0 0 .292-.148Z"/>
    <rect width="0.359" height="7.653" x="38.44" y="31.983" fill="#c9c9c9"/>
    <path fill="#bababa" d="M42.604 35.155h-.001a3.857 3.857 0 0 0-.568-.042c-.703 0-1.258.173-1.258.378 0 .206.555.378 1.258.378.21 0 .407-.015.58-.042a80.439 80.439 0 0 1 2.897-.016c.745.012 1.458.036 1.872.103.221.035 1.366.165 1.497.235.185.101.327.218.474.334.394.311.867.605 1.764.731.447.062.148.04.95.063 1.541.047 3.498.031 4.541.016.237.042.478.062.719.061.772 0 1.377-.188 1.377-.411 0-.224-.605-.41-1.377-.41-.274 0-.529.024-.742.065-.788.012-2.148.027-3.379.005-.816-.015-1.857-.06-2.298-.123a1.716 1.716 0 0 1-.542-.165c-.197-.097-.345-.21-.495-.324-.401-.303-.857-.595-1.727-.731-.372-.058-.734-.081-1.495-.101a105.03 105.03 0 0 0-4.047-.004Z"/>
    <path fill="#b1b1b1" d="m59.454 44.477.901-.006c.352 0 .638-.642.638-1.049l.007-.109h-1.165c-.493-.941-2.263-1.601-3.602-1.601-1.337 0-3.095.66-3.589 1.601l-20.137.138c-.546-.826-2.23-1.389-3.466-1.389-1.237 0-2.82.563-3.366 1.389L23 43.462l.006.825c.015.314.176.484.425.567l2.324-.012c.338-1.477 1.701-2.538 3.264-2.541 1.292.002 2.472.727 3.023 1.857l20.967.051c.44-1.338 1.732-2.253 3.184-2.256 1.557.004 2.916 1.056 3.261 2.524Z"/>
  </g>
  <g id="yellow">
    <path fill="#ffd64d" d="m12.456 11.099.046 2.732a.61.61 0 0 0 .607.602.608.608 0 0 0 .588-.621l-.047-2.731a.607.607 0 0 0-.608-.601.604.604 0 0 0-.586.601v.018Zm-3.705 2.184 1.964 1.899a.608.608 0 0 0 .855-.004.603.603 0 0 0-.024-.853l-1.964-1.899a.609.609 0 0 0-.856.005.602.602 0 0 0 .025.852Zm8.416-.842-1.9 1.965a.61.61 0 0 0 .004.854.607.607 0 0 0 .854-.023l1.899-1.965a.608.608 0 0 0-.004-.855.606.606 0 0 0-.853.024Z"/>
    <rect width="2.378" height="1.754" x="3.566" y="30.41" fill="#ffc400"/>
    <rect width="2.282" height="1.002" x="23.518" y="41.069" fill="#ffc400"/>
  </g>
  <g id="blue">
    <path fill="#91cfff" d="m15.49 18.445-.012 7.932-6.917-.004 1.853-7.958 5.076.03Z"/>
    <path fill="#bae0fd" d="m15.503 22.215-6.591 2.734.418-1.782 6.173-2.605v1.653Z"/>
    <path fill="#91cfff" d="M37.541 32.195c-.843-.039-1.777.098-2.839.483l-5.006 5.914 7.809-.348.036-6.049Z"/>
    <path fill="#bce2ff" d="M37.532 35.81v-1.74l-5.385 1.626-2.451 2.896 7.836-2.782Z"/>
  </g>
</svg>
