<svg xmlns="http://www.w3.org/2000/svg" xml:space="preserve" fill-rule="evenodd" stroke-linejoin="round" stroke-miterlimit="2" clip-rule="evenodd" viewBox="0 0 64 64">
  <g id="grey">
    <path fill="#d4d4d4" fill-rule="nonzero" d="M2.297 37.79 34.673 58l27.03-20.21-33.024-16.314L2.297 37.79Z"/>
    <path fill="#808080" d="m36.233 29.92-.042 3.098L12.547 20.51v1.96l23.616 12.702-.02 1.478-23.596-12.482v1.96l23.568 12.676-.022 1.654-23.554-12.632.008 1.96 23.516 13.018-.024 1.77-23.492-13.092v1.958l23.464 13.336-.042 3.194-23.45-14.234.02-18.102 23.684 12.292.01-.006Z"/>
    <path fill="#575757" d="m36.235 29.918 14.66-8.866-.172 6.83-14.608 8.704v2.218l14.558-8.878-.044 1.67-14.56 8.868-.006 2.34 14.514-9.118-.042 1.624-14.496 9.264-.023 2.143L50.483 37.4l-.054 2.124-14.456 10.48.262-20.086Zm-.044 3.1.004 2.14 14.568-8.902.018-2.068-14.59 8.83Z"/>
    <path fill="#bdbdbd" fill-rule="nonzero" d="m12.539 17.634 23.684 12.292 14.708-8.844-23.698-10.816-14.694 7.368Z"/>
    <path fill="#ababab" d="m24.061 42.742-.125 5.492-7.664-4.887-.006-5.099 7.795 4.494Z"/>
    <path fill="#6e6e6e" d="M23.965 42.726 28.219 40l-.128 5.188-4.2 3.046.074-5.508Z"/>
    <path fill="#d4d4d4" fill-rule="nonzero" d="m16.266 38.248 7.696 4.494 4.268-2.729-7.23-3.82-4.734 2.055Z"/>
  </g>
  <g id="blue">
    <path fill="#80afcb" d="m28.213 40.213 7.83 4.363-.028 2.202-7.854-4.464.052-2.101Zm-9.259-3.132-6.407-3.641v-1.958L21 36.193l-2.046.888Zm17.113 5.725-23.52-13.02-.008-1.96L36.097 40.46l-.03 2.346Zm.052-4L12.547 26.128v-1.96l23.6 12.484-.028 2.154Zm.048-3.632L12.547 22.47v-1.96l23.648 12.51-.028 2.154Z"/>
    <path fill="#60a2d3" d="m36.191 33.018 14.628-8.936-.056 2.174-14.596 8.918.024-2.156Zm-.072 3.566 14.604-8.702L50.669 30l-14.55 8.802v-2.218Zm-.05 3.88 14.56-8.868-.052 2.09-14.51 9.12.002-2.342Zm-.026 4.112 14.492-9.266-.052 2.09-14.468 9.318.028-2.142Z"/>
    <path fill="#80afcb" d="m21.353 42-.106 4.519-2.741-1.747-.025-4.428L21.353 42Z"/>
  </g>
  <g id="orange"/>
  <g id="red">
    <path fill="#e0504f" fill-rule="nonzero" d="M22.91 35.105V33l-1.306.767-1.768-2.92 1.404-.821-2.019-1.154v-2.749l1.88 1.074-1.351-2.232 1.709-1 1.451 2.396v-2.255l2.459 1.406v2.095l1.303-.762 1.767 2.92-1.405.823 2.025 1.157v2.749l-1.874-1.071 1.348 2.227-1.712.997-1.452-2.4v2.263l-2.459-1.405Z"/>
  </g>
  <g id="white">
    <path fill="#fff" fill-rule="nonzero" d="m22.455 27.681 1.314.751v-.848l.657.375c-.034.377-.018.727.205.964l1.399.8v.773l-1.386-.792c-.126.154-.2.369-.218.624.015.264.09.553.218.837.175.253.302.536.364.809.109.467-.109 1.153-.582.957-.4-.106-.773-.106-1.096.001a.977.977 0 0 1 .439-.376c.401-.249.802-.128.657-.692-.146-.564-.585-1.144-.657-1.554a5.219 5.219 0 0 1 0-1.104l-1.314-.751v-.774Z"/>
  </g>
</svg>
