<svg xmlns="http://www.w3.org/2000/svg" xml:space="preserve" fill-rule="evenodd" stroke-linecap="round" stroke-linejoin="round" stroke-miterlimit="1.5" clip-rule="evenodd" viewBox="0 0 64 64">
  <g id="white">
    <path fill="none" stroke="#f4f4f4" stroke-width="2px" d="M13.091 49.275 15 47h-.03c-1.204-2.775-.999-5.084.53-7L32 22.5l7 5.5-15.5 18.5c-1.627 1.818-3.652 2.381-6.295 2.324l-1.936 2.101-2.178-1.65Z"/>
    <path fill="#d4d4d4" stroke="#d4d4d4" stroke-width="2px" d="M40.626 25.5 43 27.436c.065 1.419-.659 2.05-2 2.064l-11.5-9c-.184-1.577.549-2.329 1.927-2.5l2.706 2.206 5.279-6.972c1.333-.986 2.755-1.263 4.088-1 1.568.473 2.979 1.852 3.766 3.028.794 1.82.578 3.304-.502 4.5L40.626 25.5Z"/>
    <path fill="#d4d4d4" d="M14.912 49.243c1.038.803 1.519 1.923 1.074 2.498-.445.576-1.65.391-2.688-.412-1.038-.803-1.519-1.923-1.074-2.498.445-.576 1.65-.391 2.688.412Z"/>
  </g>
</svg>
