<?xml version="1.0" encoding="UTF-8" standalone="no"?>
<!DOCTYPE svg PUBLIC "-//W3C//DTD SVG 1.1//EN" "http://www.w3.org/Graphics/SVG/1.1/DTD/svg11.dtd">
<svg width="100%" height="100%" viewBox="0 0 64 64" version="1.1" xmlns="http://www.w3.org/2000/svg" xmlns:xlink="http://www.w3.org/1999/xlink" xml:space="preserve" xmlns:serif="http://www.serif.com/" style="fill-rule:evenodd;clip-rule:evenodd;stroke-linejoin:round;stroke-miterlimit:2;">
    <g id="b">
        <path d="M30.567,14.968C46.868,13.895 60.723,21.603 61.515,32.193C62.308,42.783 49.731,52.229 33.432,53.301C17.132,54.372 3.276,46.663 2.485,36.077C1.694,25.491 14.266,16.043 30.567,14.968Z" style="fill:rgb(41,36,30);fill-rule:nonzero;"/>
        <path d="M30.763,12.627C46.234,11.567 59.321,18.492 60.011,28.1C60.702,37.708 48.725,46.349 33.261,47.408C17.799,48.468 4.704,41.538 4.013,31.935C3.324,22.33 15.3,13.686 30.763,12.627Z" style="fill:rgb(39,65,0);fill-rule:nonzero;"/>
    </g>
    <g id="a">
        <g opacity="0.75">
            <path d="M39.391,14.261C39.458,14.172 39.575,14.163 39.656,14.236C39.733,14.309 39.744,14.439 39.677,14.528C39.29,15.039 38.899,15.55 38.498,16.056C38.231,16.387 37.958,16.719 37.678,17.047C37.003,17.832 35.993,20.151 35.364,20.99C34.929,21.565 34.539,22.158 34.24,22.768C34.069,23.114 33.953,23.444 33.861,23.769C33.62,24.634 33.568,25.45 33.301,26.334C33.125,26.909 32.869,27.488 32.543,28.056C32.248,28.572 31.897,29.079 31.5,29.568C31.105,30.067 30.67,30.498 30.204,30.884C29.137,31.77 27.936,32.435 26.884,33.364C25.522,34.58 24.323,36.072 22.996,37.354C22.528,37.805 22.058,38.255 21.533,38.616C21.401,38.708 21.264,38.79 21.125,38.87C20.868,39.017 20.61,39.144 20.354,39.264C19.749,39.548 19.148,39.784 18.548,40.049C17.9,40.341 17.234,40.656 16.574,41.022C15.941,41.374 15.315,41.766 14.714,42.221C14.629,42.284 14.514,42.261 14.458,42.168C14.4,42.074 13.953,42.136 14.039,42.071C14.647,41.598 15.753,40.999 16.394,40.63C17.058,40.25 17.73,39.914 18.385,39.606C18.892,39.37 19.406,39.166 19.913,38.912C20.235,38.752 20.549,38.567 20.864,38.354C20.988,38.27 21.112,38.178 21.236,38.089C21.737,37.737 22.229,37.371 22.689,36.95C24.048,35.704 25.239,34.19 26.61,32.981C27.665,32.046 28.854,31.353 29.936,30.483C30.386,30.123 30.819,29.737 31.209,29.275C31.595,28.808 31.938,28.323 32.222,27.83C32.534,27.293 32.778,26.743 32.944,26.201C33.213,25.32 33.263,24.509 33.503,23.646C33.601,23.297 33.729,22.941 33.911,22.567C34.221,21.937 34.627,21.322 35.075,20.723C35.711,19.879 36.728,17.553 37.409,16.761C37.687,16.438 37.953,16.111 38.218,15.781C38.617,15.277 39.005,14.769 39.391,14.261Z" style="fill:rgb(75,195,241);stroke:rgb(75,195,241);stroke-width:4.2px;"/>
            <path d="M39.968,13.4C40.026,13.318 40.126,13.306 40.193,13.374C40.263,13.44 40.271,13.559 40.216,13.64C39.906,14.092 39.608,14.548 39.318,15.01C38.637,16.1 37.99,18.556 37.294,19.635C36.723,20.524 36.074,21.471 35.554,22.435C35.189,23.111 34.887,23.794 34.727,24.47C34.35,26.057 33.534,27.242 33.465,28.66C33.439,29.223 33.311,29.821 32.997,30.49C32.622,31.281 32.138,31.971 31.594,32.604C30.381,34.011 28.864,35.144 27.636,36.565C27.305,36.943 27.049,37.347 26.823,37.762C26.253,38.816 25.889,39.937 25.173,40.946C24.806,41.464 24.383,41.949 23.937,42.412C22.937,43.451 21.801,44.393 20.851,45.442C20.78,45.523 20.666,45.517 20.599,45.431C20.532,45.346 20.536,45.212 20.608,45.134C21.556,44.072 22.682,43.11 23.681,42.064C24.112,41.613 24.52,41.144 24.877,40.645C25.582,39.654 25.936,38.547 26.498,37.508C26.737,37.066 27.014,36.637 27.366,36.232C28.597,34.816 30.115,33.686 31.328,32.278C31.849,31.676 32.312,31.023 32.669,30.27C32.952,29.673 33.068,29.137 33.095,28.632C33.171,27.186 33.993,25.972 34.384,24.355C34.555,23.64 34.872,22.92 35.26,22.208C35.789,21.235 36.449,20.282 37.026,19.391C37.726,18.314 38.373,15.866 39.06,14.778C39.355,14.313 39.653,13.854 39.968,13.4Z" style="fill:rgb(75,195,241);stroke:rgb(75,195,241);stroke-width:4.21px;stroke-linejoin:miter;"/>
            <path d="M16.763,43.665C21.595,43.857 27.226,36.361 31.111,30.086" style="fill:none;stroke:rgb(75,195,241);stroke-width:4.2px;stroke-linecap:round;stroke-miterlimit:1.5;"/>
            <path d="M14.128,39.508L10.627,41.421L11.356,43.33L14.128,39.508Z" style="fill:rgb(75,195,241);"/>
        </g>
        <path d="M30.567,10.699C46.868,9.626 60.723,17.334 61.515,27.924C62.308,38.515 49.731,47.96 33.432,49.032C17.132,50.104 3.276,42.394 2.485,31.808C1.694,21.223 14.266,11.774 30.567,10.699ZM30.731,13.194C21.645,13.793 13.776,17.118 9.118,21.865C6.319,24.718 4.713,28.077 4.978,31.622C5.244,35.179 7.342,38.304 10.55,40.771C15.875,44.867 24.172,47.136 33.268,46.537C42.353,45.94 50.223,42.617 54.882,37.87C57.682,35.017 59.288,31.657 59.022,28.111C58.756,24.551 56.657,21.426 53.45,18.959C48.124,14.862 39.828,12.595 30.731,13.194Z" style="fill:rgb(213,13,13);"/>
        <g>
            <path d="M19.57,27.5C19.531,27.475 19.526,27.423 19.55,27.39C19.579,27.356 19.629,27.346 19.664,27.37C19.741,27.365 19.761,27.337 19.83,27.356C19.89,27.37 19.932,27.423 19.982,27.458C20.735,27.984 21.441,28.575 22.082,29.224C22.804,29.95 23.431,30.754 23.939,31.638C24.005,31.758 23.96,31.905 23.84,31.97C23.721,32.035 23.564,31.992 23.498,31.874C23.113,31.195 22.65,30.563 22.136,29.972C21.439,29.172 20.636,28.457 19.789,27.805C19.722,27.753 19.632,27.722 19.592,27.651C19.554,27.587 19.579,27.571 19.57,27.5Z" style="fill:rgb(85,142,47);"/>
            <path d="M26.167,21.611C26.186,21.571 26.233,21.552 26.274,21.571C26.316,21.59 26.331,21.636 26.316,21.676C25.566,23.24 25.027,24.887 24.637,26.574C24.244,28.261 23.999,29.982 23.85,31.69C23.847,31.736 23.806,31.77 23.757,31.767C23.711,31.761 23.676,31.721 23.679,31.674C23.827,29.961 24.072,28.23 24.468,26.537C24.865,24.841 25.412,23.182 26.167,21.611Z" style="fill:rgb(85,142,47);"/>
            <path d="M26.126,18.477C26.144,18.434 26.192,18.412 26.239,18.428C26.284,18.443 26.306,18.493 26.291,18.538C25.475,20.633 24.846,22.818 24.425,25.038C23.999,27.26 23.784,29.513 23.802,31.755C23.802,31.801 23.768,31.837 23.721,31.837C23.676,31.837 23.637,31.801 23.637,31.758C23.609,29.507 23.815,27.236 24.24,25.004C24.662,22.774 25.303,20.58 26.126,18.477Z" style="fill:rgb(85,142,47);"/>
            <path d="M20.573,23.822C20.547,23.785 20.56,23.732 20.601,23.707C20.639,23.683 20.693,23.695 20.718,23.735C20.798,23.844 20.877,23.951 20.95,24.064C21.603,25.069 22.111,26.168 22.568,27.281C22.971,28.27 23.314,29.286 23.599,30.301C23.631,30.412 23.653,30.52 23.688,30.624C23.707,30.671 23.733,30.715 23.749,30.76C23.784,30.859 23.799,30.967 23.824,31.069C23.84,31.126 23.802,31.182 23.745,31.198C23.686,31.212 23.624,31.176 23.612,31.12C23.587,31.016 23.549,30.917 23.529,30.814C23.52,30.766 23.523,30.718 23.514,30.671C23.494,30.56 23.457,30.456 23.428,30.348C23.143,29.338 22.8,28.331 22.394,27.349C21.933,26.247 21.369,25.192 20.769,24.169C20.702,24.055 20.639,23.935 20.573,23.822Z" style="fill:rgb(85,142,47);"/>
            <path d="M21.011,13.075C21.001,13.022 21.035,12.98 21.086,12.973C21.141,12.97 21.191,13.007 21.2,13.059C21.4,14.131 21.6,15.199 21.781,16.27C22.041,17.812 22.118,19.373 22.514,20.9C23.113,23.211 23.546,25.524 23.691,27.832C23.707,28.092 23.619,30.428 23.656,30.684C23.686,30.855 23.698,31.029 23.721,31.201C23.726,31.249 23.695,31.293 23.644,31.297C23.593,31.302 23.546,31.265 23.536,31.215C23.498,31.056 23.453,30.896 23.421,30.736C23.343,30.363 23.412,27.906 23.4,27.532C23.336,25.54 23.012,23.619 22.47,21.747C21.89,19.751 21.791,17.698 21.449,15.676C21.303,14.811 21.163,13.942 21.011,13.075Z" style="fill:rgb(85,142,47);"/>
            <path d="M21.267,14.266C21.89,14.223 22.622,15.55 22.901,17.224C23.181,18.902 22.905,20.297 22.283,20.34C21.66,20.383 20.927,19.057 20.648,17.382C20.37,15.703 20.646,14.309 21.267,14.266Z" style="fill:rgb(117,70,0);"/>
        </g>
        <g>
            <path d="M14.496,31.628C14.451,31.599 14.445,31.539 14.474,31.499C14.506,31.46 14.565,31.449 14.606,31.477C14.694,31.471 14.718,31.438 14.799,31.46C14.868,31.477 14.916,31.539 14.975,31.579C15.849,32.19 16.67,32.877 17.414,33.63C18.252,34.473 18.98,35.407 19.57,36.434C19.647,36.573 19.595,36.744 19.456,36.819C19.317,36.894 19.135,36.845 19.058,36.708C18.611,35.919 18.074,35.185 17.477,34.499C16.667,33.57 15.734,32.74 14.75,31.982C14.673,31.921 14.569,31.886 14.522,31.803C14.477,31.729 14.506,31.71 14.496,31.628Z" style="fill:rgb(85,142,47);"/>
            <path d="M22.158,24.788C22.18,24.742 22.235,24.72 22.282,24.742C22.331,24.764 22.349,24.817 22.331,24.864C21.461,26.68 20.835,28.592 20.381,30.552C19.924,32.511 19.64,34.51 19.468,36.494C19.464,36.548 19.416,36.587 19.36,36.584C19.306,36.576 19.265,36.53 19.268,36.476C19.441,34.486 19.725,32.475 20.185,30.509C20.646,28.539 21.281,26.613 22.158,24.788Z" style="fill:rgb(85,142,47);"/>
            <path d="M22.11,21.149C22.131,21.099 22.187,21.073 22.241,21.092C22.294,21.109 22.32,21.167 22.302,21.22C21.354,23.652 20.624,26.19 20.135,28.769C19.64,31.349 19.39,33.966 19.412,36.569C19.412,36.623 19.372,36.665 19.317,36.665C19.265,36.665 19.22,36.623 19.22,36.573C19.187,33.958 19.427,31.321 19.92,28.728C20.411,26.139 21.155,23.591 22.11,21.149Z" style="fill:rgb(85,142,47);"/>
            <path d="M15.661,27.356C15.631,27.313 15.646,27.252 15.693,27.223C15.738,27.195 15.8,27.209 15.829,27.255C15.922,27.381 16.015,27.506 16.099,27.637C16.858,28.804 17.448,30.08 17.979,31.374C18.446,32.522 18.844,33.702 19.176,34.881C19.213,35.01 19.238,35.135 19.279,35.256C19.301,35.31 19.331,35.361 19.349,35.414C19.39,35.529 19.408,35.654 19.437,35.772C19.456,35.839 19.412,35.904 19.346,35.922C19.277,35.939 19.205,35.897 19.191,35.832C19.162,35.711 19.117,35.596 19.094,35.476C19.084,35.421 19.088,35.365 19.076,35.31C19.054,35.182 19.01,35.06 18.977,34.936C18.646,33.763 18.248,32.593 17.776,31.453C17.241,30.173 16.586,28.947 15.889,27.759C15.812,27.626 15.738,27.487 15.661,27.356Z" style="fill:rgb(85,142,47);"/>
            <path d="M16.169,14.875C16.158,14.813 16.198,14.764 16.257,14.756C16.32,14.753 16.379,14.795 16.389,14.856C16.622,16.101 16.854,17.341 17.065,18.586C17.367,20.376 17.455,22.189 17.915,23.963C18.611,26.647 19.114,29.332 19.282,32.014C19.301,32.316 19.198,35.028 19.242,35.325C19.277,35.524 19.291,35.726 19.317,35.926C19.323,35.982 19.287,36.033 19.228,36.037C19.169,36.043 19.114,36.001 19.102,35.943C19.058,35.757 19.006,35.572 18.969,35.386C18.878,34.952 18.959,32.099 18.944,31.664C18.87,29.351 18.494,27.12 17.864,24.946C17.191,22.628 17.076,20.244 16.678,17.895C16.509,16.891 16.346,15.882 16.169,14.875Z" style="fill:rgb(85,142,47);"/>
            <path d="M16.468,16.258C17.191,16.208 18.041,17.749 18.365,19.694C18.691,21.642 18.369,23.262 17.647,23.312C16.924,23.362 16.072,21.822 15.748,19.876C15.425,17.927 15.745,16.308 16.468,16.258Z" style="fill:rgb(117,70,0);"/>
        </g>
        <g>
            <path d="M35.946,30.001C35.909,29.973 35.9,29.918 35.927,29.878C35.958,29.838 36.013,29.828 36.054,29.859C36.134,29.844 36.137,29.81 36.216,29.828C36.272,29.841 36.312,29.893 36.358,29.924C37.057,30.425 37.715,30.992 38.312,31.61C38.979,32.306 39.564,33.077 40.038,33.921C40.112,34.053 40.062,34.222 39.931,34.293C39.798,34.367 39.628,34.321 39.554,34.185C39.201,33.538 38.776,32.939 38.303,32.38C37.659,31.616 36.918,30.933 36.14,30.309C36.078,30.259 35.992,30.228 35.958,30.161C35.918,30.087 35.952,30.084 35.946,30.001Z" style="fill:rgb(85,142,47);"/>
            <path d="M41.936,24.641C41.957,24.598 42.011,24.576 42.056,24.598C42.099,24.62 42.117,24.673 42.099,24.718C41.41,26.208 40.908,27.78 40.545,29.389C40.182,30.998 39.958,32.64 39.819,34.268C39.817,34.321 39.77,34.357 39.718,34.355C39.665,34.349 39.628,34.302 39.632,34.253C39.774,32.613 39.998,30.964 40.364,29.346C40.734,27.727 41.237,26.143 41.936,24.641Z" style="fill:rgb(85,142,47);"/>
            <path d="M41.942,21.584C41.961,21.534 42.016,21.509 42.066,21.528C42.114,21.546 42.14,21.602 42.121,21.652C41.366,23.648 40.785,25.733 40.394,27.85C40.005,29.97 39.801,32.123 39.819,34.258C39.819,34.308 39.78,34.351 39.73,34.351C39.678,34.351 39.638,34.312 39.638,34.262C39.61,32.112 39.801,29.946 40.195,27.813C40.586,25.685 41.179,23.589 41.942,21.584Z" style="fill:rgb(85,142,47);"/>
            <path d="M36.801,26.697C36.773,26.65 36.789,26.595 36.832,26.567C36.875,26.54 36.934,26.552 36.962,26.598C37.035,26.7 37.109,26.802 37.18,26.908C37.786,27.866 38.253,28.921 38.674,29.986C39.051,30.93 39.364,31.896 39.628,32.869C39.659,32.973 39.678,33.077 39.715,33.178C39.73,33.222 39.755,33.259 39.774,33.302C39.804,33.401 39.819,33.501 39.844,33.6C39.859,33.666 39.819,33.73 39.755,33.745C39.69,33.76 39.626,33.721 39.61,33.656C39.586,33.561 39.552,33.465 39.533,33.364C39.527,33.317 39.533,33.274 39.524,33.228C39.506,33.123 39.472,33.022 39.444,32.92C39.182,31.955 38.863,30.998 38.484,30.062C38.063,29.01 37.53,28.007 36.98,27.029C36.918,26.918 36.863,26.807 36.801,26.697Z" style="fill:rgb(85,142,47);"/>
            <path d="M40.625,16.433C40.629,16.374 40.678,16.326 40.736,16.319C40.795,16.316 40.84,16.359 40.837,16.415C40.798,17.436 40.758,18.457 40.697,19.479C40.61,20.952 40.49,22.423 40.392,23.897C40.244,26.106 40.121,28.312 40.016,30.515C40.005,30.761 40.005,31.004 39.982,31.25C39.97,31.413 39.942,31.576 39.924,31.743C39.921,31.798 39.875,31.847 39.819,31.85C39.764,31.856 39.72,31.813 39.724,31.758C39.72,31.606 39.709,31.456 39.712,31.303C39.718,30.945 39.751,30.585 39.774,30.228C39.881,28.388 40.019,26.548 40.14,24.706C40.269,22.777 40.367,20.845 40.477,18.916C40.527,18.088 40.582,17.261 40.625,16.433Z" style="fill:rgb(85,142,47);"/>
            <path d="M40.629,17.568C41.213,17.529 41.61,18.793 41.515,20.393C41.42,21.992 40.865,23.325 40.281,23.365C39.696,23.404 39.299,22.141 39.398,20.54C39.493,18.94 40.044,17.609 40.629,17.568Z" style="fill:rgb(117,70,0);"/>
        </g>
        <g>
            <path d="M26.353,23.375C26.32,23.35 26.311,23.301 26.337,23.266C26.365,23.23 26.415,23.222 26.452,23.249C26.525,23.236 26.527,23.206 26.6,23.222C26.651,23.233 26.687,23.279 26.729,23.307C27.366,23.751 27.966,24.253 28.509,24.801C29.118,25.418 29.651,26.102 30.082,26.85C30.15,26.966 30.105,27.117 29.984,27.179C29.864,27.245 29.709,27.204 29.642,27.084C29.319,26.51 28.933,25.979 28.501,25.483C27.915,24.807 27.24,24.201 26.531,23.648C26.474,23.604 26.396,23.577 26.365,23.517C26.328,23.452 26.359,23.449 26.353,23.375Z" style="fill:rgb(85,142,47);"/>
            <path d="M31.812,18.625C31.831,18.587 31.879,18.567 31.921,18.587C31.961,18.605 31.977,18.653 31.961,18.693C31.332,20.013 30.875,21.407 30.545,22.833C30.214,24.259 30.009,25.715 29.883,27.158C29.881,27.204 29.838,27.236 29.791,27.234C29.743,27.229 29.709,27.187 29.712,27.144C29.841,25.691 30.046,24.228 30.379,22.794C30.716,21.359 31.175,19.956 31.812,18.625Z" style="fill:rgb(85,142,47);"/>
            <path d="M31.817,15.915C31.834,15.871 31.885,15.849 31.93,15.865C31.975,15.882 31.998,15.931 31.98,15.975C31.293,17.744 30.763,19.592 30.407,21.469C30.052,23.348 29.866,25.256 29.883,27.149C29.883,27.193 29.847,27.231 29.802,27.231C29.754,27.231 29.718,27.196 29.718,27.152C29.693,25.246 29.866,23.326 30.225,21.436C30.582,19.549 31.123,17.693 31.817,15.915Z" style="fill:rgb(85,142,47);"/>
            <path d="M27.133,20.447C27.107,20.405 27.122,20.356 27.161,20.332C27.2,20.307 27.253,20.318 27.279,20.359C27.346,20.449 27.413,20.539 27.478,20.634C28.03,21.482 28.456,22.418 28.84,23.361C29.183,24.199 29.468,25.055 29.709,25.917C29.737,26.01 29.754,26.102 29.788,26.192C29.802,26.23 29.824,26.263 29.841,26.302C29.869,26.389 29.883,26.478 29.906,26.566C29.92,26.623 29.883,26.681 29.824,26.694C29.765,26.708 29.707,26.672 29.693,26.615C29.67,26.53 29.64,26.446 29.623,26.356C29.617,26.314 29.623,26.276 29.614,26.236C29.597,26.143 29.567,26.053 29.541,25.963C29.303,25.107 29.012,24.259 28.666,23.429C28.282,22.497 27.797,21.608 27.295,20.741C27.24,20.643 27.189,20.544 27.133,20.447Z" style="fill:rgb(85,142,47);"/>
            <path d="M30.618,11.35C30.621,11.297 30.665,11.254 30.718,11.248C30.772,11.246 30.813,11.284 30.811,11.333C30.775,12.238 30.739,13.144 30.683,14.049C30.604,15.356 30.494,16.659 30.405,17.965C30.27,19.923 30.158,21.878 30.063,23.831C30.052,24.048 30.052,24.264 30.031,24.482C30.021,24.627 29.995,24.772 29.978,24.919C29.975,24.967 29.934,25.011 29.883,25.014C29.832,25.019 29.793,24.981 29.796,24.932C29.793,24.799 29.782,24.665 29.785,24.529C29.791,24.212 29.821,23.893 29.841,23.577C29.939,21.946 30.065,20.315 30.175,18.682C30.293,16.972 30.383,15.26 30.483,13.55C30.528,12.816 30.578,12.083 30.618,11.35Z" style="fill:rgb(85,142,47);"/>
            <path d="M30.621,12.355C31.153,12.32 31.515,13.441 31.428,14.859C31.341,16.277 30.836,17.458 30.304,17.493C29.771,17.529 29.409,16.408 29.498,14.989C29.586,13.572 30.088,12.391 30.621,12.355Z" style="fill:rgb(117,70,0);"/>
        </g>
        <g>
            <path d="M30.368,17.817C30.35,17.804 30.345,17.777 30.359,17.758C30.374,17.739 30.401,17.734 30.421,17.749C30.461,17.742 30.462,17.726 30.501,17.734C30.529,17.74 30.548,17.765 30.571,17.78C30.917,18.021 31.241,18.293 31.536,18.59C31.865,18.924 32.154,19.294 32.388,19.7C32.424,19.763 32.4,19.844 32.334,19.878C32.269,19.914 32.186,19.891 32.149,19.826C31.975,19.515 31.765,19.228 31.532,18.959C31.214,18.593 30.848,18.265 30.464,17.965C30.433,17.941 30.391,17.926 30.374,17.894C30.355,17.859 30.371,17.857 30.368,17.817Z" style="fill:rgb(85,142,47);"/>
            <path d="M33.325,15.244C33.336,15.224 33.362,15.213 33.384,15.224C33.405,15.233 33.415,15.259 33.405,15.281C33.065,15.996 32.818,16.751 32.638,17.524C32.459,18.296 32.349,19.085 32.28,19.866C32.279,19.891 32.256,19.909 32.23,19.908C32.204,19.905 32.186,19.882 32.188,19.859C32.258,19.072 32.369,18.279 32.549,17.503C32.732,16.725 32.98,15.965 33.325,15.244Z" style="fill:rgb(85,142,47);"/>
            <path d="M33.328,13.776C33.337,13.752 33.364,13.74 33.389,13.749C33.413,13.758 33.425,13.785 33.416,13.809C33.044,14.767 32.757,15.768 32.564,16.785C32.371,17.803 32.271,18.836 32.28,19.862C32.28,19.885 32.261,19.906 32.236,19.906C32.21,19.906 32.191,19.887 32.191,19.863C32.177,18.831 32.271,17.791 32.466,16.767C32.658,15.745 32.951,14.739 33.328,13.776Z" style="fill:rgb(85,142,47);"/>
            <path d="M30.79,16.231C30.776,16.208 30.784,16.182 30.805,16.169C30.827,16.155 30.856,16.161 30.87,16.183C30.905,16.232 30.942,16.281 30.977,16.332C31.276,16.792 31.507,17.298 31.715,17.81C31.901,18.264 32.055,18.727 32.186,19.194C32.201,19.245 32.21,19.294 32.229,19.343C32.236,19.364 32.248,19.382 32.258,19.403C32.273,19.45 32.28,19.498 32.292,19.546C32.3,19.577 32.28,19.608 32.248,19.615C32.216,19.623 32.184,19.603 32.177,19.572C32.165,19.526 32.148,19.481 32.139,19.432C32.136,19.409 32.139,19.389 32.134,19.367C32.125,19.317 32.109,19.268 32.095,19.219C31.966,18.755 31.808,18.296 31.621,17.846C31.413,17.342 31.15,16.86 30.878,16.39C30.848,16.337 30.821,16.284 30.79,16.231Z" style="fill:rgb(85,142,47);"/>
            <path d="M32.678,11.303C32.68,11.275 32.704,11.251 32.733,11.248C32.762,11.247 32.784,11.267 32.783,11.294C32.763,11.784 32.743,12.275 32.713,12.765C32.67,13.473 32.611,14.179 32.562,14.887C32.489,15.947 32.429,17.006 32.377,18.064C32.371,18.182 32.371,18.299 32.36,18.417C32.354,18.495 32.341,18.573 32.331,18.654C32.33,18.68 32.307,18.703 32.28,18.705C32.253,18.708 32.231,18.687 32.233,18.661C32.231,18.589 32.226,18.516 32.227,18.442C32.23,18.271 32.246,18.098 32.258,17.926C32.311,17.043 32.379,16.16 32.438,15.275C32.502,14.349 32.551,13.421 32.605,12.495C32.63,12.097 32.657,11.7 32.678,11.303Z" style="fill:rgb(85,142,47);"/>
            <path d="M32.68,11.848C32.968,11.829 33.164,12.436 33.117,13.204C33.07,13.972 32.797,14.612 32.508,14.631C32.219,14.65 32.023,14.043 32.072,13.274C32.119,12.507 32.391,11.867 32.68,11.848Z" style="fill:rgb(117,70,0);"/>
        </g>
        <g>
            <path d="M22.567,26.393C22.534,26.368 22.525,26.32 22.55,26.284C22.578,26.248 22.629,26.24 22.666,26.268C22.739,26.254 22.741,26.224 22.814,26.24C22.865,26.252 22.901,26.297 22.943,26.325C23.58,26.769 24.18,27.271 24.723,27.819C25.332,28.436 25.865,29.12 26.296,29.868C26.364,29.984 26.318,30.135 26.198,30.197C26.078,30.263 25.923,30.222 25.855,30.102C25.533,29.529 25.147,28.997 24.715,28.502C24.129,27.825 23.453,27.219 22.745,26.666C22.688,26.622 22.61,26.595 22.578,26.535C22.542,26.47 22.573,26.467 22.567,26.393Z" style="fill:rgb(85,142,47);"/>
            <path d="M28.026,21.643C28.045,21.605 28.093,21.585 28.135,21.605C28.174,21.624 28.191,21.671 28.174,21.711C27.546,23.031 27.089,24.425 26.758,25.851C26.428,27.277 26.223,28.733 26.096,30.176C26.095,30.222 26.052,30.254 26.005,30.252C25.957,30.247 25.923,30.205 25.926,30.162C26.055,28.709 26.26,27.247 26.593,25.812C26.93,24.377 27.389,22.974 28.026,21.643Z" style="fill:rgb(85,142,47);"/>
            <path d="M28.031,18.933C28.048,18.889 28.099,18.867 28.144,18.883C28.188,18.9 28.212,18.949 28.194,18.993C27.507,20.762 26.977,22.611 26.621,24.487C26.266,26.366 26.08,28.274 26.096,30.167C26.096,30.211 26.061,30.249 26.016,30.249C25.968,30.249 25.932,30.214 25.932,30.17C25.906,28.264 26.08,26.344 26.439,24.454C26.795,22.567 27.337,20.711 28.031,18.933Z" style="fill:rgb(85,142,47);"/>
            <path d="M23.347,23.465C23.321,23.423 23.336,23.374 23.374,23.35C23.414,23.326 23.467,23.336 23.493,23.378C23.559,23.467 23.627,23.558 23.692,23.652C24.244,24.501 24.67,25.436 25.054,26.379C25.397,27.217 25.682,28.073 25.923,28.935C25.951,29.028 25.968,29.12 26.002,29.21C26.016,29.249 26.038,29.281 26.055,29.32C26.083,29.407 26.096,29.496 26.119,29.584C26.133,29.641 26.096,29.699 26.038,29.712C25.979,29.726 25.92,29.69 25.906,29.633C25.884,29.549 25.854,29.464 25.837,29.374C25.831,29.333 25.837,29.294 25.828,29.254C25.811,29.161 25.781,29.071 25.755,28.981C25.517,28.125 25.226,27.277 24.88,26.447C24.496,25.515 24.011,24.626 23.509,23.759C23.453,23.661 23.403,23.562 23.347,23.465Z" style="fill:rgb(85,142,47);"/>
            <path d="M26.832,14.368C26.835,14.315 26.879,14.272 26.932,14.266C26.986,14.264 27.027,14.302 27.025,14.351C26.989,15.257 26.952,16.162 26.897,17.067C26.818,18.374 26.708,19.677 26.619,20.983C26.484,22.941 26.372,24.897 26.277,26.849C26.266,27.067 26.266,27.283 26.245,27.5C26.235,27.645 26.209,27.79 26.192,27.937C26.189,27.986 26.147,28.03 26.096,28.032C26.046,28.038 26.007,27.999 26.01,27.95C26.007,27.817 25.996,27.683 25.999,27.547C26.005,27.23 26.035,26.911 26.055,26.595C26.153,24.964 26.279,23.334 26.389,21.7C26.507,19.99 26.596,18.278 26.697,16.568C26.742,15.834 26.792,15.101 26.832,14.368Z" style="fill:rgb(85,142,47);"/>
            <path d="M26.835,15.373C27.367,15.338 27.729,16.459 27.642,17.877C27.555,19.295 27.05,20.476 26.517,20.511C25.985,20.547 25.623,19.426 25.712,18.007C25.8,16.59 26.302,15.409 26.835,15.373Z" style="fill:rgb(117,70,0);"/>
        </g>
        <g>
            <path d="M40.473,22.104C40.449,22.085 40.442,22.048 40.461,22.022C40.481,21.994 40.518,21.988 40.545,22.009C40.599,21.998 40.6,21.976 40.653,21.988C40.691,21.997 40.718,22.031 40.748,22.052C41.214,22.387 41.654,22.764 42.052,23.177C42.497,23.641 42.887,24.156 43.204,24.719C43.253,24.807 43.22,24.921 43.131,24.967C43.044,25.016 42.93,24.986 42.881,24.896C42.645,24.464 42.362,24.064 42.046,23.69C41.616,23.181 41.122,22.726 40.603,22.309C40.561,22.276 40.503,22.255 40.481,22.21C40.454,22.161 40.477,22.159 40.473,22.104Z" style="fill:rgb(85,142,47);"/>
            <path d="M44.47,18.526C44.485,18.498 44.519,18.483 44.55,18.498C44.579,18.512 44.591,18.547 44.579,18.578C44.119,19.572 43.785,20.621 43.542,21.695C43.3,22.769 43.15,23.865 43.057,24.951C43.057,24.986 43.025,25.01 42.99,25.009C42.955,25.004 42.93,24.973 42.933,24.941C43.027,23.847 43.177,22.746 43.421,21.666C43.668,20.586 44.004,19.529 44.47,18.526Z" style="fill:rgb(85,142,47);"/>
            <path d="M44.475,16.486C44.487,16.453 44.523,16.437 44.556,16.449C44.589,16.461 44.605,16.498 44.593,16.531C44.09,17.864 43.703,19.256 43.442,20.668C43.181,22.083 43.045,23.52 43.057,24.945C43.057,24.978 43.032,25.007 42.998,25.007C42.964,25.007 42.936,24.979 42.936,24.947C42.918,23.512 43.045,22.066 43.309,20.644C43.568,19.223 43.965,17.825 44.475,16.486Z" style="fill:rgb(85,142,47);"/>
            <path d="M41.044,19.898C41.025,19.867 41.036,19.831 41.064,19.812C41.093,19.794 41.131,19.802 41.151,19.833C41.199,19.9 41.249,19.968 41.297,20.04C41.7,20.678 42.013,21.382 42.294,22.093C42.544,22.724 42.754,23.368 42.93,24.016C42.951,24.087 42.964,24.156 42.988,24.224C42.998,24.253 43.014,24.277 43.027,24.307C43.048,24.372 43.057,24.439 43.075,24.505C43.085,24.549 43.057,24.592 43.014,24.602C42.971,24.612 42.928,24.586 42.918,24.542C42.902,24.479 42.879,24.415 42.866,24.347C42.862,24.317 42.866,24.288 42.86,24.257C42.848,24.187 42.826,24.12 42.808,24.052C42.633,23.407 42.42,22.769 42.167,22.144C41.885,21.442 41.53,20.773 41.163,20.12C41.122,20.046 41.085,19.972 41.044,19.898Z" style="fill:rgb(85,142,47);"/>
            <path d="M43.596,13.049C43.598,13.01 43.63,12.977 43.669,12.973C43.709,12.971 43.739,13 43.737,13.037C43.711,13.718 43.684,14.4 43.642,15.081C43.585,16.065 43.506,17.047 43.44,18.03C43.341,19.504 43.259,20.976 43.189,22.447C43.181,22.61 43.181,22.773 43.167,22.937C43.159,23.046 43.14,23.154 43.127,23.265C43.125,23.302 43.095,23.335 43.057,23.338C43.02,23.342 42.992,23.313 42.994,23.276C42.992,23.175 42.984,23.075 42.986,22.972C42.99,22.733 43.012,22.493 43.027,22.255C43.099,21.027 43.191,19.799 43.271,18.57C43.358,17.283 43.424,15.994 43.497,14.706C43.53,14.154 43.567,13.601 43.596,13.049Z" style="fill:rgb(85,142,47);"/>
            <path d="M43.598,13.807C43.988,13.779 44.253,14.624 44.189,15.692C44.126,16.759 43.756,17.648 43.366,17.675C42.976,17.701 42.711,16.858 42.776,15.79C42.84,14.722 43.208,13.834 43.598,13.807Z" style="fill:rgb(117,70,0);"/>
        </g>
        <g>
            <path d="M29.73,41.518C29.694,41.49 29.685,41.435 29.712,41.395C29.743,41.354 29.798,41.345 29.839,41.376C29.919,41.361 29.922,41.327 30.001,41.345C30.057,41.358 30.097,41.409 30.143,41.441C30.842,41.942 31.5,42.508 32.096,43.127C32.764,43.822 33.349,44.594 33.823,45.438C33.897,45.569 33.847,45.739 33.715,45.809C33.583,45.883 33.413,45.837 33.339,45.702C32.985,45.055 32.561,44.456 32.087,43.896C31.444,43.133 30.703,42.45 29.925,41.825C29.863,41.776 29.777,41.745 29.743,41.677C29.703,41.604 29.737,41.601 29.73,41.518Z" style="fill:rgb(85,142,47);"/>
            <path d="M35.72,36.158C35.742,36.115 35.795,36.093 35.84,36.115C35.884,36.137 35.902,36.19 35.884,36.235C35.194,37.725 34.693,39.297 34.33,40.906C33.967,42.515 33.742,44.157 33.603,45.785C33.602,45.837 33.555,45.874 33.503,45.872C33.45,45.865 33.413,45.818 33.417,45.77C33.558,44.13 33.783,42.48 34.148,40.862C34.518,39.244 35.022,37.66 35.72,36.158Z" style="fill:rgb(85,142,47);"/>
            <path d="M35.727,33.101C35.746,33.051 35.801,33.026 35.85,33.045C35.899,33.063 35.924,33.119 35.905,33.169C35.151,35.165 34.57,37.25 34.179,39.367C33.789,41.487 33.585,43.64 33.603,45.775C33.603,45.825 33.565,45.868 33.515,45.868C33.463,45.868 33.423,45.828 33.423,45.779C33.395,43.628 33.585,41.463 33.98,39.33C34.37,37.201 34.964,35.106 35.727,33.101Z" style="fill:rgb(85,142,47);"/>
            <path d="M30.586,38.214C30.558,38.167 30.574,38.112 30.616,38.084C30.66,38.057 30.718,38.069 30.746,38.115C30.819,38.217 30.893,38.319 30.965,38.425C31.57,39.382 32.038,40.437 32.459,41.502C32.835,42.447 33.149,43.413 33.413,44.385C33.444,44.49 33.463,44.594 33.5,44.695C33.515,44.738 33.539,44.775 33.558,44.819C33.589,44.918 33.603,45.018 33.629,45.116C33.644,45.182 33.603,45.246 33.539,45.262C33.474,45.277 33.41,45.237 33.395,45.172C33.371,45.078 33.337,44.982 33.318,44.881C33.312,44.834 33.318,44.791 33.308,44.745C33.29,44.64 33.257,44.539 33.229,44.437C32.967,43.471 32.648,42.515 32.269,41.579C31.847,40.527 31.315,39.524 30.764,38.546C30.703,38.435 30.648,38.324 30.586,38.214Z" style="fill:rgb(85,142,47);"/>
            <path d="M34.41,27.95C34.414,27.891 34.462,27.842 34.52,27.836C34.58,27.833 34.625,27.876 34.622,27.932C34.582,28.952 34.543,29.974 34.481,30.995C34.395,32.469 34.275,33.94 34.176,35.414C34.028,37.623 33.906,39.829 33.801,42.032C33.789,42.277 33.789,42.521 33.767,42.767C33.755,42.93 33.727,43.092 33.709,43.259C33.705,43.314 33.659,43.364 33.603,43.367C33.548,43.373 33.505,43.33 33.509,43.275C33.505,43.123 33.493,42.973 33.497,42.82C33.503,42.462 33.536,42.101 33.558,41.745C33.666,39.905 33.804,38.065 33.925,36.223C34.054,34.294 34.152,32.362 34.262,30.432C34.312,29.605 34.367,28.777 34.41,27.95Z" style="fill:rgb(85,142,47);"/>
            <path d="M34.414,29.085C34.998,29.045 35.395,30.31 35.3,31.91C35.204,33.509 34.65,34.842 34.065,34.881C33.481,34.921 33.084,33.658 33.183,32.057C33.278,30.457 33.829,29.126 34.414,29.085Z" style="fill:rgb(117,70,0);"/>
        </g>
        <g>
            <path d="M34.072,34.917C34.035,34.889 34.026,34.833 34.054,34.794C34.084,34.753 34.139,34.744 34.179,34.775C34.26,34.759 34.263,34.725 34.342,34.744C34.398,34.757 34.438,34.808 34.484,34.84C35.182,35.341 35.841,35.907 36.438,36.525C37.105,37.22 37.689,37.993 38.164,38.836C38.238,38.968 38.188,39.138 38.056,39.207C37.924,39.281 37.754,39.236 37.68,39.101C37.327,38.454 36.902,37.855 36.429,37.294C35.785,36.532 35.044,35.849 34.266,35.224C34.204,35.175 34.118,35.144 34.084,35.076C34.044,35.003 34.078,35 34.072,34.917Z" style="fill:rgb(85,142,47);"/>
            <path d="M40.062,29.556C40.083,29.514 40.136,29.492 40.182,29.514C40.225,29.535 40.243,29.588 40.225,29.634C39.536,31.123 39.034,32.695 38.671,34.305C38.308,35.914 38.084,37.556 37.945,39.183C37.943,39.236 37.896,39.272 37.845,39.27C37.791,39.263 37.754,39.217 37.758,39.169C37.9,37.529 38.123,35.879 38.49,34.261C38.86,32.642 39.363,31.059 40.062,29.556Z" style="fill:rgb(85,142,47);"/>
            <path d="M40.068,26.499C40.086,26.449 40.141,26.425 40.191,26.443C40.24,26.462 40.265,26.517 40.246,26.567C39.492,28.564 38.911,30.649 38.52,32.766C38.13,34.886 37.927,37.039 37.945,39.174C37.945,39.224 37.906,39.267 37.856,39.267C37.804,39.267 37.763,39.226 37.763,39.177C37.736,37.027 37.927,34.861 38.321,32.729C38.711,30.6 39.306,28.505 40.068,26.499Z" style="fill:rgb(85,142,47);"/>
            <path d="M34.927,31.612C34.899,31.566 34.915,31.511 34.958,31.483C35.001,31.456 35.059,31.467 35.088,31.514C35.161,31.615 35.235,31.717 35.306,31.824C35.912,32.781 36.379,33.836 36.8,34.901C37.176,35.846 37.49,36.812 37.754,37.783C37.785,37.889 37.804,37.993 37.841,38.094C37.856,38.137 37.881,38.174 37.9,38.218C37.93,38.316 37.945,38.417 37.97,38.515C37.985,38.581 37.945,38.645 37.881,38.661C37.816,38.676 37.752,38.636 37.736,38.571C37.712,38.477 37.678,38.381 37.659,38.279C37.652,38.233 37.659,38.19 37.65,38.144C37.632,38.039 37.597,37.938 37.57,37.836C37.309,36.87 36.989,35.914 36.61,34.978C36.189,33.926 35.656,32.923 35.106,31.945C35.044,31.834 34.989,31.723 34.927,31.612Z" style="fill:rgb(85,142,47);"/>
            <path d="M38.751,21.349C38.754,21.29 38.804,21.241 38.862,21.235C38.921,21.231 38.966,21.275 38.964,21.33C38.924,22.351 38.884,23.373 38.822,24.394C38.735,25.868 38.616,27.339 38.518,28.813C38.37,31.022 38.246,33.227 38.141,35.431C38.13,35.676 38.13,35.92 38.108,36.165C38.096,36.329 38.068,36.491 38.049,36.657C38.047,36.712 38.001,36.762 37.945,36.766C37.89,36.772 37.846,36.729 37.85,36.673C37.846,36.522 37.835,36.372 37.838,36.218C37.845,35.86 37.877,35.5 37.9,35.144C38.007,33.304 38.145,31.464 38.265,29.622C38.395,27.693 38.493,25.761 38.603,23.831C38.653,23.004 38.708,22.176 38.751,21.349Z" style="fill:rgb(85,142,47);"/>
            <path d="M38.754,22.484C39.339,22.443 39.736,23.709 39.64,25.309C39.546,26.908 38.992,28.24 38.407,28.28C37.822,28.32 37.425,27.056 37.523,25.456C37.619,23.856 38.17,22.525 38.754,22.484Z" style="fill:rgb(117,70,0);"/>
        </g>
    </g>
</svg>
