<?xml version="1.0" encoding="UTF-8" standalone="no"?>
<!DOCTYPE svg PUBLIC "-//W3C//DTD SVG 1.1//EN" "http://www.w3.org/Graphics/SVG/1.1/DTD/svg11.dtd">
<svg width="100%" height="100%" viewBox="0 0 64 64" version="1.1" xmlns="http://www.w3.org/2000/svg" xmlns:xlink="http://www.w3.org/1999/xlink" xml:space="preserve" xmlns:serif="http://www.serif.com/" style="fill-rule:evenodd;clip-rule:evenodd;stroke-linejoin:round;stroke-miterlimit:2;">
    <g id="b">
        <path d="M30.567,14.968C46.868,13.895 60.723,21.603 61.515,32.193C62.308,42.783 49.731,52.229 33.432,53.301C17.132,54.372 3.276,46.663 2.485,36.077C1.694,25.491 14.266,16.043 30.567,14.968Z" style="fill:rgb(41,36,30);fill-rule:nonzero;"/>
    </g>
    <g id="Layer1">
        <g transform="matrix(0.965801,0,0,1,1.10495,0)">
            <path d="M30.567,12.119C46.868,11.113 60.723,18.336 61.515,28.259C62.308,38.183 49.731,47.034 33.432,48.038C17.132,49.043 3.276,41.818 2.485,31.899C1.694,21.98 14.266,13.126 30.567,12.119Z" style="fill:rgb(243,244,244);fill-rule:nonzero;"/>
        </g>
        <path d="M4.946,32.95L16.805,32.396L28.177,35.347L40.523,31.317L50.175,34.84L59.004,28.907C60.337,34.501 55.18,41.339 46.722,44.283C35.582,49.274 24.744,48.219 14.664,43.474C9.617,41.927 5.488,36.755 4.946,32.95Z" style="fill:rgb(79,129,152);"/>
        <path d="M5.821,25.69L18.227,23.053L28.624,25.999L40.82,22.117L49.799,26.069L57.708,22.915C59.577,26.183 60.154,28.554 59.213,31.115C56.539,33.654 53.049,34.792 50.175,34.84C46.032,34.652 42.867,33.423 40.523,31.317C36.602,33.598 32.495,34.979 28.177,35.347C23.622,35.28 19.764,34.377 16.805,32.396C12.166,35.408 9.064,36.291 5.821,35.66C3.759,32.142 4.833,27.489 5.821,25.69Z" style="fill:rgb(115,167,199);"/>
        <path d="M11.358,18.948C14.789,16.429 15.383,16.201 19.129,14.657C24.106,17.487 27.667,18.437 30.047,17.816C33.898,17.386 36.083,17.676 40.334,14.756C42.836,17.251 49.396,18.131 51.754,16.755C55.276,19.221 56.06,20.447 57.708,22.915C55.821,25.341 53.68,25.941 49.799,26.069C46.33,25.577 43.295,24.334 40.82,22.117C37.077,24.234 32.97,25.416 28.624,25.999C24.283,26.792 20.771,25.9 18.227,23.053C12.031,25.885 8.827,26.498 5.821,25.69C6.663,23.612 7.981,21.427 11.358,18.948Z" style="fill:rgb(75,195,241);"/>
        <path d="M30.567,10.699C46.868,9.626 60.723,17.334 61.515,27.924C62.308,38.515 49.731,47.96 33.432,49.032C17.132,50.104 3.276,42.394 2.485,31.808C1.694,21.223 14.266,11.774 30.567,10.699ZM30.731,13.194C21.645,13.793 13.776,17.118 9.118,21.865C6.319,24.718 4.713,28.077 4.978,31.622C5.244,35.179 7.342,38.304 10.55,40.771C15.875,44.867 24.172,47.136 33.268,46.537C42.353,45.94 50.223,42.617 54.882,37.87C57.682,35.017 59.288,31.657 59.022,28.111C58.756,24.551 56.657,21.426 53.45,18.959C48.124,14.862 39.828,12.595 30.731,13.194Z" style="fill:rgb(98,253,19);"/>
    </g>
</svg>
