<?xml version="1.0" encoding="UTF-8" standalone="no"?>
<!DOCTYPE svg PUBLIC "-//W3C//DTD SVG 1.1//EN" "http://www.w3.org/Graphics/SVG/1.1/DTD/svg11.dtd">
<svg width="100%" height="100%" viewBox="0 0 64 64" version="1.1" xmlns="http://www.w3.org/2000/svg" xmlns:xlink="http://www.w3.org/1999/xlink" xml:space="preserve" xmlns:serif="http://www.serif.com/" style="fill-rule:evenodd;clip-rule:evenodd;stroke-linecap:round;stroke-linejoin:round;stroke-miterlimit:1.5;">
    <g id="b">
        <path d="M30.567,14.968C46.868,13.895 60.723,21.603 61.515,32.193C62.308,42.783 49.731,52.229 33.432,53.301C17.132,54.372 3.276,46.663 2.485,36.077C1.694,25.491 14.266,16.043 30.567,14.968Z" style="fill:rgb(41,36,30);fill-rule:nonzero;"/>
        <path d="M30.661,12.627C46.186,11.567 59.318,18.492 60.011,28.1C60.705,37.708 48.686,46.349 33.169,47.408C17.653,48.468 4.513,41.538 3.819,31.935C3.127,22.33 15.145,13.686 30.661,12.627Z" style="fill:rgb(39,65,0);fill-rule:nonzero;"/>
        <path d="M30.567,10.699C46.868,9.626 60.723,17.334 61.515,27.924C62.308,38.515 49.731,47.96 33.432,49.032C17.132,50.104 3.276,42.394 2.485,31.808C1.694,21.223 14.266,11.774 30.567,10.699ZM30.731,13.194C21.645,13.793 13.776,17.118 9.118,21.865C6.319,24.718 4.713,28.077 4.978,31.622C5.244,35.179 7.342,38.304 10.55,40.771C15.875,44.867 24.172,47.136 33.268,46.537C42.353,45.94 50.223,42.617 54.882,37.87C57.682,35.017 59.288,31.657 59.022,28.111C58.756,24.551 56.657,21.426 53.45,18.959C48.124,14.862 39.828,12.595 30.731,13.194Z" style="fill:rgb(108,62,39);"/>
    </g>
    <g id="a">
        <g>
            <path d="M34.01,15.787L34.191,15.607L32.513,13.905L32.332,14.085L34.01,15.787Z" style="fill:rgb(117,70,0);"/>
            <path d="M34.356,16.486L33.977,16.564L34,19.505L34.702,19.676L34.356,16.486Z" style="fill:rgb(117,70,0);"/>
            <path d="M37.454,13.996L37.304,13.755L33.977,15.828L34.127,16.07L37.454,13.996Z" style="fill:rgb(117,70,0);"/>
            <path d="M38.526,13.29C38.526,12.739 38.185,12.295 37.764,12.295C37.343,12.295 37,12.739 37,13.29C37,13.838 37.343,14.283 37.764,14.283C38.185,14.283 38.526,13.838 38.526,13.29Z" style="fill:rgb(85,142,47);"/>
            <path d="M35.613,16.248C35.613,15.267 34.88,14.474 33.977,14.474C33.073,14.474 32.341,15.267 32.341,16.248C32.341,17.228 33.073,18.023 33.977,18.023C34.88,18.023 35.613,17.228 35.613,16.248Z" style="fill:rgb(85,142,47);"/>
            <path d="M38.234,14.474C37.59,14.848 36.092,14.819 34.891,14.408C33.689,13.996 33.237,13.359 33.881,12.984C34.523,12.609 36.021,12.638 37.224,13.05C38.424,13.46 38.878,14.1 38.234,14.474Z" style="fill:rgb(85,142,47);"/>
            <path d="M33.968,16.821C33.968,16.043 33.155,15.412 32.156,15.412C31.154,15.412 30.342,16.043 30.342,16.821C30.342,17.6 31.154,18.232 32.156,18.232C33.155,18.232 33.968,17.6 33.968,16.821Z" style="fill:rgb(85,142,47);"/>
            <path d="M37.624,16.932C37.624,16.153 36.814,15.523 35.813,15.523C34.811,15.523 34,16.153 34,16.932C34,17.711 34.811,18.343 35.813,18.343C36.814,18.343 37.624,17.711 37.624,16.932Z" style="fill:rgb(85,142,47);"/>
            <path d="M37.624,12.872C37.624,12.095 37.196,11.463 36.67,11.463C36.143,11.463 35.715,12.095 35.715,12.872C35.715,13.651 36.143,14.283 36.67,14.283C37.196,14.283 37.624,13.651 37.624,12.872Z" style="fill:rgb(85,142,47);"/>
            <path d="M34.934,12.525C34.934,11.762 34.154,11.145 33.191,11.145C32.228,11.145 31.448,11.762 31.448,12.525C31.448,13.288 32.228,13.905 33.191,13.905C34.154,13.905 34.934,13.288 34.934,12.525Z" style="fill:rgb(85,142,47);"/>
            <path d="M33.191,13.326C33.191,12.547 32.381,11.917 31.38,11.917C30.378,11.917 29.568,12.547 29.568,13.326C29.568,14.105 30.378,14.737 31.38,14.737C32.381,14.737 33.191,14.105 33.191,13.326Z" style="fill:rgb(85,142,47);"/>
        </g>
        <path d="M34.987,33.734C34.637,36 28.55,37.836 21.383,37.836C14.205,37.836 9.61,35.922 9.938,33.652C10.159,32.117 12.059,30.848 16.116,30.141C14.993,29.231 14.438,28.199 14.594,27.109C15.131,23.398 23.75,20.387 33.829,20.387C39.677,20.387 44.741,21.402 47.853,22.977C52.148,23.125 54.121,24.199 53.915,25.641C53.771,26.633 53.259,27.617 50.769,28.113C49.188,30.977 42.783,33.25 34.987,33.734Z" style="fill:rgb(115,167,199);stroke:rgb(85,142,47);stroke-width:1.64px;"/>
        <g>
            <rect x="46.298" y="25.097" width="2.305" height="10.739" style="fill:rgb(117,70,0);"/>
            <path d="M47.449,13.852L51.93,26.145L42.971,26.145L47.449,13.852Z" style="fill:rgb(114,171,94);stroke:rgb(114,171,94);stroke-width:0.8px;stroke-linecap:butt;stroke-miterlimit:1;"/>
        </g>
    </g>
</svg>
