<?xml version="1.0" encoding="UTF-8" standalone="no"?>
<!DOCTYPE svg PUBLIC "-//W3C//DTD SVG 1.1//EN" "http://www.w3.org/Graphics/SVG/1.1/DTD/svg11.dtd">
<svg width="100%" height="100%" viewBox="0 0 64 64" version="1.1" xmlns="http://www.w3.org/2000/svg" xmlns:xlink="http://www.w3.org/1999/xlink" xml:space="preserve" xmlns:serif="http://www.serif.com/" style="fill-rule:evenodd;clip-rule:evenodd;stroke-linecap:round;stroke-linejoin:round;stroke-miterlimit:1.5;">
    <g id="b">
        <path d="M30.567,14.968C46.868,13.895 60.723,21.603 61.515,32.193C62.308,42.783 49.731,52.229 33.432,53.301C17.132,54.372 3.276,46.663 2.485,36.077C1.694,25.491 14.266,16.043 30.567,14.968Z" style="fill:rgb(41,36,30);fill-rule:nonzero;"/>
        <path d="M30.978,12.608C46.173,11.561 59.026,18.394 59.705,27.874C60.383,37.354 48.62,45.879 33.432,46.924C18.245,47.971 5.382,41.133 4.704,31.657C4.027,22.182 15.789,13.652 30.978,12.608Z" style="fill:rgb(39,65,0);fill-rule:nonzero;"/>
    </g>
    <g id="a">
        <path d="M45.25,14.15C42.114,12.283 34.443,10.506 34.299,13.289C34.191,15.405 31.375,16.525 30.25,18.727C27.028,22.317 28.834,26.088 26.836,27.239C22.946,29.48 19.267,31.703 16.816,34.134C15.115,35.82 13.257,36.449 10.948,37.043C4.52,38.698 7.067,39.894 8.42,40.853C12.829,43.977 18.473,46.111 22.556,46.515C25.092,46.766 34.886,49.184 37.299,47.03C38.073,46.018 35.484,43.495 35.365,40.704C35.325,39.763 35.084,37.266 35.365,36.866C36.747,34.902 35.578,36.087 36.856,34.134C38.479,31.654 40.452,30.192 41.73,29.109C42.588,28.38 43.133,27.822 43.044,27.239C42.702,24.968 43.248,24.42 43.695,22.56C44.891,19.85 47.575,17.841 50.552,15.15C49.156,14.469 46.665,13.426 45.25,14.15Z" style="fill:rgb(75,195,241);"/>
        <path d="M38.625,13.289L34.425,18.321C32.971,19.56 32.644,20.316 32.409,21.027C32.134,21.848 31.943,23.213 31.475,24.989C30.947,26.991 29.022,28.757 27.608,29.109" style="fill:none;fill-rule:nonzero;stroke:rgb(79,129,152);stroke-width:0.71px;"/>
        <path d="M40.371,26.064C41.06,27.134 40.681,27.842 39.913,28.415L37.209,30.586C35.75,31.832 34.81,32.886 34.369,33.758C33.549,35.009 31.694,37.205 31.694,37.205C28.139,41.083 27.763,42.634 27.886,44.755" style="fill:none;fill-rule:nonzero;stroke:rgb(79,129,152);stroke-width:0.71px;"/>
        <path d="M45.718,15.15C43.349,17.264 40.409,20.315 39.202,22.305" style="fill:rgb(79,129,152);fill-rule:nonzero;stroke:rgb(79,129,152);stroke-width:0.71px;"/>
        <path d="M24.136,31.063C23.658,31.369 22.791,33.015 21.403,34.134C19.834,35.4 17.757,36.134 17.757,36.134C17.757,36.134 11.666,37.576 9.507,39.704" style="fill:none;fill-rule:nonzero;stroke:rgb(79,129,152);stroke-width:0.71px;"/>
        <path d="M26.475,34.134C23.972,36.502 18.092,43.446 16.331,44.755" style="fill:rgb(79,129,152);fill-rule:nonzero;stroke:rgb(79,129,152);stroke-width:0.71px;"/>
        <path d="M39.202,18C37.714,19.163 36.839,20.414 36.208,21.699C35.564,22.548 35.112,23.604 35.038,25.064C34.977,27.325 33.017,30.267 31.529,31.063" style="fill:none;stroke:rgb(79,129,152);stroke-width:0.66px;"/>
        <path d="M30.567,10.699C46.868,9.626 60.723,17.334 61.515,27.924C62.308,38.515 49.731,47.96 33.432,49.032C17.132,50.104 3.276,42.394 2.485,31.808C1.694,21.223 14.266,11.774 30.567,10.699ZM30.731,13.194C21.645,13.793 13.776,17.118 9.118,21.865C6.319,24.718 4.713,28.077 4.978,31.622C5.244,35.179 7.342,38.304 10.55,40.771C15.875,44.867 24.172,47.136 33.268,46.537C42.353,45.94 50.223,42.617 54.882,37.87C57.682,35.017 59.288,31.657 59.022,28.111C58.756,24.551 56.657,21.426 53.45,18.959C48.124,14.862 39.828,12.595 30.731,13.194Z" style="fill:rgb(252,223,17);"/>
        <g id="Stone">
            <g id="ResourceStone">
                <path id="Path_530" d="M41.242,38.052L39.202,33.904L42.136,31.144L46.29,31.144L49.625,33.904L50.199,36.587L48.159,38.052L41.242,38.052Z" style="fill:rgb(139,131,131);fill-rule:nonzero;"/>
                <path id="Path_536" d="M39.202,33.843L41.416,35.684L44.113,34.349L45.32,35.17L48.646,33.053L46.187,31.081L42.129,31.081L39.202,33.843Z" style="fill:white;fill-opacity:0.3;fill-rule:nonzero;"/>
            </g>
        </g>
        <g id="Stone1" serif:id="Stone">
            <g id="ResourceStone1" serif:id="ResourceStone">
                <path id="Path_5301" serif:id="Path_530" d="M14.705,31.081L13.857,29.357L15.076,28.21L16.803,28.21L18.189,29.357L18.427,30.472L17.579,31.081L14.705,31.081Z" style="fill:rgb(139,131,131);fill-rule:nonzero;"/>
                <path id="Path_5361" serif:id="Path_536" d="M13.857,29.332L14.777,30.097L15.898,29.542L16.399,29.883L17.782,29.003L16.76,28.184L15.073,28.184L13.857,29.332Z" style="fill:white;fill-opacity:0.3;fill-rule:nonzero;"/>
            </g>
        </g>
    </g>
</svg>
